<svg id="Layer_1" data-name="Layer 1" xmlns="http://www.w3.org/2000/svg" viewBox="0 0 80 80"><defs><style>.cls-1{fill:#2286e6;}.cls-2{fill:#fee5e5;}.cls-2,.cls-4{opacity:1;isolation:isolate;}.cls-3{fill:#f84c4c;}.cls-4{fill:#fb9999;}</style></defs><path class="cls-1" d="M58.91,12.33H21.09a8.61,8.61,0,0,0-8.59,8.59v26.5A8.62,8.62,0,0,0,21.09,56H58.91a8.62,8.62,0,0,0,8.59-8.6V20.92A8.61,8.61,0,0,0,58.91,12.33Zm5.15,35.09a5.19,5.19,0,0,1-5.15,5.16H21.09a5.19,5.19,0,0,1-5.15-5.16V20.92a5.18,5.18,0,0,1,5.15-5.15H58.91a5.18,5.18,0,0,1,5.15,5.15Z"/><polygon class="cls-2" points="48.88 34.18 35.13 42.77 35.13 25.58 48.88 34.18"/><path class="cls-3" d="M34.29,44.27a1.72,1.72,0,0,0,1.75,0l13.75-8.6a1.72,1.72,0,0,0,0-2.91L36,24.13a1.71,1.71,0,0,0-2.63,1.45V42.77A1.71,1.71,0,0,0,34.29,44.27Zm2.55-15.59,8.79,5.5-8.79,5.49Z"/><circle class="cls-3" cx="29.09" cy="64.02" r="3.65"/><path class="cls-4" d="M62.39,62.3H35a6.28,6.28,0,0,1,0,3.44H62.39A1.61,1.61,0,0,0,64,64.13V63.9A1.61,1.61,0,0,0,62.39,62.3Z"/><path class="cls-4" d="M22.93,64a6.44,6.44,0,0,1,.24-1.72H17.61A1.61,1.61,0,0,0,16,63.9v.23a1.61,1.61,0,0,0,1.61,1.61h5.56A6.49,6.49,0,0,1,22.93,64Z"/></svg>