<svg id="Layer_1" data-name="Layer 1" xmlns="http://www.w3.org/2000/svg" viewBox="0 0 80 80"><defs><style>.cls-1,.cls-2{fill:#2286e6;}.cls-1{fill-rule:evenodd;}.cls-3{fill:#00c622;}</style></defs><path id="Shape-2" class="cls-1" d="M25.1,67.5C35.49,67.5,44,54.9,44,54.9S35.48,42.3,25.1,42.3a12.6,12.6,0,0,0,0,25.2Zm-1.74-8.34,1.11,1.12,1.12-1.12,6.29-6.29a1.57,1.57,0,0,0-2.22-2.23l-5.17,5.21-2.06-2.06a1.57,1.57,0,1,0-2.29,2.15.46.46,0,0,0,.07.07l3.15,3.15Z"/><path class="cls-2" d="M65.54,41a2,2,0,0,0-2,2V61.61a2,2,0,0,1-2,2H45a2,2,0,0,0-2,2h0a2,2,0,0,0,2,2H61.61a5.89,5.89,0,0,0,5.89-5.89V43a2,2,0,0,0-2-2Z"/><path class="cls-3" d="M67.5,15.35V27.63a2.86,2.86,0,1,1-5.71,0V22.25L49.87,34.17a2.85,2.85,0,0,1-2,.83,2.85,2.85,0,0,1-2-4.87L57.76,18.21H52.37a2.86,2.86,0,0,1,0-5.71H64.65A2.86,2.86,0,0,1,67.5,15.35Z"/><path class="cls-2" d="M14.46,39a2,2,0,0,0,2-2V18.39a2,2,0,0,1,2-2H37a2,2,0,0,0,2-2h0a2,2,0,0,0-2-2H18.39a5.89,5.89,0,0,0-5.89,5.89V37a2,2,0,0,0,2,2Z"/></svg>