<svg id="Layer_1" data-name="Layer 1" xmlns="http://www.w3.org/2000/svg" viewBox="0 0 80 80"><defs><style>.cls-1{fill:#a6cef5;}.cls-2{fill:#e8f3fd;}.cls-3{fill:#2286e6;}</style></defs><path class="cls-1" d="M52.39,30.48a3.13,3.13,0,1,1,.07,6.25l-3.12,0-3.13,0a3.13,3.13,0,0,1-.07-6.25l3.13,0Z"/><path class="cls-2" d="M33.79,43.2a3.13,3.13,0,1,1,.07,6.25l-3.13,0-3.12,0a3.13,3.13,0,0,1-.07-6.25l3.12,0Z"/><path class="cls-3" d="M21.52,63.65,59,63.22a4.7,4.7,0,0,0,4.63-4.74L63.22,21a4.68,4.68,0,0,0-4.74-4.63L21,16.78a4.69,4.69,0,0,0-4.63,4.73L16.78,59A4.69,4.69,0,0,0,21.52,63.65ZM19.47,21.48A1.59,1.59,0,0,1,21,19.9l37.5-.43A1.58,1.58,0,0,1,60.1,21l.43,37.5A1.6,1.6,0,0,1,59,60.1l-37.5.43A1.6,1.6,0,0,1,19.9,59Z"/><path class="cls-3" d="M27.63,51.08l1.56,0,0,4.68a1.57,1.57,0,1,0,3.13,0L32.31,51l1.57,0a4.69,4.69,0,0,0-.11-9.38l-1.56,0L32,24.46a1.57,1.57,0,1,0-3.13,0l.2,17.19-1.56,0a4.69,4.69,0,0,0,.11,9.37Zm-.08-6.25,3.13,0,3.12,0a1.56,1.56,0,0,1,0,3.12l-3.13,0-3.12,0a1.56,1.56,0,1,1,0-3.12Z"/><path class="cls-3" d="M46.23,38.37l1.56,0L48,55.53a1.57,1.57,0,0,0,3.13,0l-.2-17.18,1.56,0a4.69,4.69,0,1,0-.11-9.37l-1.56,0-.05-4.69a1.57,1.57,0,0,0-3.13,0L47.69,29l-1.57,0a4.69,4.69,0,0,0,.11,9.38Zm-.07-6.25,3.13,0,3.12,0a1.56,1.56,0,1,1,0,3.12l-3.13,0-3.12,0a1.56,1.56,0,1,1,0-3.12Z"/></svg>