<svg id="Layer_1" data-name="Layer 1" xmlns="http://www.w3.org/2000/svg" viewBox="0 0 80 80"><defs><style>.cls-1{fill:#2286e6;}.cls-2{fill:#e5f9e8;}.cls-3{fill:#00c622;}</style></defs><path class="cls-1" d="M66.06,34.87,59.64,33.8a19.94,19.94,0,0,0-1.37-3.3l3.79-5.3A1.72,1.72,0,0,0,61.88,23L57,18.12a1.72,1.72,0,0,0-2.21-.18l-5.3,3.79a19.94,19.94,0,0,0-3.3-1.37l-1.07-6.42a1.72,1.72,0,0,0-1.69-1.44H36.56a1.72,1.72,0,0,0-1.69,1.44L33.8,20.36a19.94,19.94,0,0,0-3.3,1.37l-5.3-3.79a1.72,1.72,0,0,0-2.21.18L18.12,23a1.72,1.72,0,0,0-.18,2.21l3.79,5.3a19.94,19.94,0,0,0-1.37,3.3l-6.42,1.07a1.72,1.72,0,0,0-1.44,1.69v6.88a1.72,1.72,0,0,0,1.44,1.69l6.42,1.07a19.94,19.94,0,0,0,1.37,3.3l-3.79,5.3A1.72,1.72,0,0,0,18.12,57L23,61.88a1.72,1.72,0,0,0,2.21.18l5.3-3.79a19.94,19.94,0,0,0,3.3,1.37l1.07,6.42a1.72,1.72,0,0,0,1.69,1.44h6.88a1.72,1.72,0,0,0,1.69-1.44l1.07-6.42a19.94,19.94,0,0,0,3.3-1.37l5.3,3.79A1.72,1.72,0,0,0,57,61.88L61.88,57a1.72,1.72,0,0,0,.18-2.21l-3.79-5.3a19.94,19.94,0,0,0,1.37-3.3l6.42-1.07a1.72,1.72,0,0,0,1.44-1.69V36.56A1.72,1.72,0,0,0,66.06,34.87ZM58,43a1.72,1.72,0,0,0-1.38,1.27,17,17,0,0,1-1.86,4.48,1.71,1.71,0,0,0,.08,1.88l3.57,5-2.81,2.81-5-3.57a1.71,1.71,0,0,0-1.88-.08,17,17,0,0,1-4.48,1.86A1.72,1.72,0,0,0,43,58l-1,6.05H38L37,58a1.72,1.72,0,0,0-1.27-1.38,17,17,0,0,1-4.48-1.86,1.71,1.71,0,0,0-1.88.08l-5,3.57-2.81-2.81,3.57-5a1.71,1.71,0,0,0,.08-1.88,17,17,0,0,1-1.86-4.48A1.72,1.72,0,0,0,22,43l-6-1V38l6-1a1.72,1.72,0,0,0,1.38-1.27,17,17,0,0,1,1.86-4.48,1.71,1.71,0,0,0-.08-1.88l-3.57-5,2.81-2.81,5,3.57a1.71,1.71,0,0,0,1.88.08,17,17,0,0,1,4.48-1.86A1.72,1.72,0,0,0,37,22l1-6h4l1,6a1.72,1.72,0,0,0,1.27,1.38,17,17,0,0,1,4.48,1.86,1.71,1.71,0,0,0,1.88-.08l5-3.57,2.81,2.81-3.57,5a1.71,1.71,0,0,0-.08,1.88,17,17,0,0,1,1.86,4.48A1.72,1.72,0,0,0,58,37l6.05,1v4Z"/><circle class="cls-2" cx="40" cy="40" r="8.5"/><path class="cls-3" d="M40,29.69A10.31,10.31,0,1,0,50.31,40,10.32,10.32,0,0,0,40,29.69Zm0,17.19A6.88,6.88,0,1,1,46.88,40,6.91,6.91,0,0,1,40,46.88Z"/></svg>