<svg id="Layer_1" data-name="Layer 1" xmlns="http://www.w3.org/2000/svg" viewBox="0 0 80 80"><defs><style>.cls-1{fill:#e5f9e8;}.cls-2{fill:#2286e6;}.cls-3{fill:#00c622;}</style></defs><path class="cls-1" d="M60.63,21.09H19.38a3.44,3.44,0,1,1,0-6.87H60.63a3.44,3.44,0,0,1,0,6.87Z"/><path class="cls-2" d="M60.63,12.5H19.38a5.15,5.15,0,0,0-1.72,10V52a1.74,1.74,0,0,0,.5,1.22,1.72,1.72,0,0,0,1.22.5h18.9V57.5a5.16,5.16,0,1,0,3.44,0V53.75H60.63a1.72,1.72,0,0,0,1.21-.5,1.74,1.74,0,0,0,.5-1.22V22.5a5.15,5.15,0,0,0-1.71-10ZM40,64.06a1.72,1.72,0,1,1,0-3.43h0a1.72,1.72,0,1,1,0,3.43ZM58.91,50.31H21.09V22.81H58.91Zm1.72-30.93H19.38a1.72,1.72,0,1,1,0-3.44H60.63a1.72,1.72,0,0,1,0,3.44Z"/><path class="cls-3" d="M27.47,42.93l5.65-5.66,5.66,5.66a1.71,1.71,0,0,0,2.44,0L55,29.18a1.72,1.72,0,0,0-2.44-2.43L40,39.29l-5.66-5.66a1.72,1.72,0,0,0-2.43,0L25,40.5a1.72,1.72,0,1,0,2.44,2.43Z"/></svg>