<svg xmlns="http://www.w3.org/2000/svg" xmlns:xlink="http://www.w3.org/1999/xlink" width="50" height="40" viewBox="0 0 50 40">
  <defs>
    <clipPath id="clip-path">
      <rect id="Rectangle_1" data-name="Rectangle 1" width="49.967" height="40" fill="#fff"/>
    </clipPath>
    <clipPath id="clip-Assistant_Gliph">
      <rect width="50" height="40"/>
    </clipPath>
  </defs>
  <g id="Assistant_Gliph" data-name="Assistant Gliph" clip-path="url(#clip-Assistant_Gliph)">
    <rect width="50" height="40" fill="#fff"/>
    <g id="gliph" clip-path="url(#clip-path)">
      <path id="Path_1" data-name="Path 1" d="M19.978,40C36.44,40,49.967,20.022,49.967,20.022S36.44,0,19.978,0A20.337,20.337,0,0,0,0,20.022,20.328,20.328,0,0,0,19.978,40Z" fill="#2286e6" fill-rule="evenodd"/>
      <path id="Path_2" data-name="Path 2" d="M17.219,26.785,19,28.565l1.78-1.78,9.967-10.011a2.5,2.5,0,0,0-3.559-3.515L19.044,21.49l-3.293-3.248a2.494,2.494,0,0,0-3.6,3.426l.134.133Z" fill="#fff" fill-rule="evenodd"/>
    </g>
    <circle id="Ellipse_1" data-name="Ellipse 1" cx="8.5" cy="8.5" r="8.5" transform="translate(33 23)" fill="#4cd763"/>
  </g>
</svg>
