<svg id="Layer_1" data-name="Layer 1" xmlns="http://www.w3.org/2000/svg" viewBox="0 0 300 100"><defs><style>.cls-1,.cls-2,.cls-3{fill-rule:evenodd;}.cls-2{fill:#2286e6;}.cls-3{fill:#fff;}.cls-4{fill:#656d78;}</style></defs><title>LT_WooRANK_+</title><path class="cls-1" d="M113.72,53A8.74,8.74,0,1,1,105,44.49,8.43,8.43,0,0,1,113.72,53ZM99.88,53A5.1,5.1,0,1,0,105,47.82,5,5,0,0,0,99.88,53Z"/><path class="cls-1" d="M129.31,53a8.74,8.74,0,1,1-8.75-8.51A8.43,8.43,0,0,1,129.31,53Zm-13.84,0a5.1,5.1,0,1,0,5.09-5.18A5,5,0,0,0,115.47,53Z"/><path class="cls-1" d="M139.43,48a7.48,7.48,0,0,0-1.45-.16c-2.26,0-3.9,2.29-3.87,5.91v7.33h-3.54V44.91h3.51v1.3c.95-1.26,2.44-1.72,4.71-1.72a8,8,0,0,1,3.08.57A9.71,9.71,0,0,0,139.43,48Z"/><path class="cls-1" d="M153,61.09V59.67a7,7,0,0,1-5.11,1.84A8.13,8.13,0,0,1,139.75,53a8.13,8.13,0,0,1,8.12-8.51A7.22,7.22,0,0,1,153,46.35V44.91h3.54V61.09Zm-4.68-2.9A4.86,4.86,0,0,0,153.2,53a4.91,4.91,0,1,0-9.8,0c0,2.84,1.84,5.19,4.9,5.19Z"/><path class="cls-1" d="M173.75,50.92V61.09h-3.56v-9c0-2.72-1.41-4.24-3.78-4.24a4,4,0,0,0-4.21,4.27v9h-3.56V44.91h3.53v2a5.76,5.76,0,0,1,5-2.4,6.25,6.25,0,0,1,6.6,6.43"/><path class="cls-1" d="M180.31,51l5.36-6.12h4.46l-6.8,7.62.25.31,6.62,8.25h-4.5l-5.41-6.76h-.88v6.76h-3.56V40.32l3.56-3.54V51Z"/><path class="cls-1" d="M98.79,53.14a6.13,6.13,0,0,1,3.11-5.34L103.31,45,97,49.34l-2.35,5.13L90,43.51l-4.69,11L81,45H76.68l8.67,17.54L90,52,94.64,62.5,98.85,54a5.69,5.69,0,0,1-.06-.83"/><path class="cls-2" d="M58.06,63.22c8.64,0,15.74-10.46,15.74-10.46S66.7,42.29,58.06,42.29a10.47,10.47,0,1,0,0,20.93Z"/><path class="cls-3" d="M56.6,56.3l.93.93.93-.93,5.25-5.23a1.31,1.31,0,1,0-1.86-1.85l-4.3,4.32-1.72-1.71A1.31,1.31,0,0,0,54,53.68L56.6,56.3Z"/><path class="cls-4" d="M208.81,44.48V61.09H206.5V53.53h-9.21v7.56H195V44.48h2.31v7.41h9.21V44.48Z"/><path class="cls-4" d="M224.44,59.26v1.83H213.91V44.48h10.52v1.83h-8.21v5.52h6.65v1.76h-6.65v5.67Z"/><path class="cls-4" d="M237.78,59.2v1.89h-9.69V44.48h2.3V59.2Z"/><path class="cls-4" d="M246.08,44.48a9.74,9.74,0,0,1,2.81.36,5.6,5.6,0,0,1,2,1,4.27,4.27,0,0,1,1.17,1.62,5.56,5.56,0,0,1,.39,2.12,5.29,5.29,0,0,1-.42,2.13,4.5,4.5,0,0,1-1.22,1.65,5.69,5.69,0,0,1-2,1.09,8.73,8.73,0,0,1-2.73.39h-2.74v6.21H241V44.48Zm0,8.61a5.41,5.41,0,0,0,1.74-.25,3.62,3.62,0,0,0,1.28-.72,3,3,0,0,0,.78-1.09,3.77,3.77,0,0,0,.26-1.41,3.17,3.17,0,0,0-1-2.48,4.51,4.51,0,0,0-3-.89h-2.74v6.84Z"/></svg>