<svg id="Layer_1" data-name="Layer 1" xmlns="http://www.w3.org/2000/svg" viewBox="0 0 80 80"><defs><style>.cls-1{fill:#ffc04c;}.cls-2,.cls-3{fill:#2286e6;}.cls-3{stroke:#2286e6;stroke-miterlimit:10;}</style></defs><path class="cls-1" d="M34.54,31.17l-1.31,7.66a1.56,1.56,0,0,0,2.26,1.64l6.88-3.61,6.88,3.61a1.56,1.56,0,0,0,2.26-1.64L50.2,31.17l5.56-5.42a1.56,1.56,0,0,0-.86-2.66L47.21,22l-3.44-7A1.56,1.56,0,0,0,41,15l-3.44,7-7.69,1.12A1.56,1.56,0,0,0,29,25.75Z"/><path class="cls-2" d="M50,41.84a2.76,2.76,0,0,1-1.28-.32l-6.33-3.33L36,41.52a2.74,2.74,0,0,1-4-2.89l1.21-7.05-5.12-5a2.73,2.73,0,0,1,1.51-4.67l7.08-1,3.16-6.41a2.74,2.74,0,0,1,4.92,0L48,20.89l7.08,1a2.71,2.71,0,0,1,2.21,1.86,2.74,2.74,0,0,1-.69,2.81l-5.12,5,1.21,7.05A2.76,2.76,0,0,1,50,41.84Zm-7.61-6.16a1.17,1.17,0,0,1,.55.13l6.88,3.62a.38.38,0,0,0,.4,0,.37.37,0,0,0,.15-.37L49,31.37a1.16,1.16,0,0,1,.34-1l5.56-5.43a.37.37,0,0,0,.1-.39.39.39,0,0,0-.31-.26L47,23.14a1.2,1.2,0,0,1-.89-.65l-3.44-7a.38.38,0,0,0-.68,0l-3.44,7a1.18,1.18,0,0,1-.89.65L30,24.25a.36.36,0,0,0-.3.26.37.37,0,0,0,.09.39l5.57,5.43a1.18,1.18,0,0,1,.34,1L34.39,39a.37.37,0,0,0,.15.37.38.38,0,0,0,.4,0l6.88-3.62A1.17,1.17,0,0,1,42.37,35.68Z"/><path class="cls-2" d="M54.79,23.81,47.1,22.69a.7.7,0,0,1-.54-.4l-3.44-7a.88.88,0,0,0-.75-.46.81.81,0,0,0-.74.46l-3.44,7a.71.71,0,0,1-.55.4L30,23.81a.81.81,0,0,0-.67.57.82.82,0,0,0,.21.85l5.56,5.42a.73.73,0,0,1,.21.64L34,39a.82.82,0,0,0,.33.82.81.81,0,0,0,.87.06L42,36.21a.74.74,0,0,1,.68,0l6.88,3.62a.9.9,0,0,0,.39.1.84.84,0,0,0,.48-.16.82.82,0,0,0,.33-.82l-1.31-7.66a.73.73,0,0,1,.21-.64l5.56-5.42a.83.83,0,0,0,.21-.86A.8.8,0,0,0,54.79,23.81ZM49.06,30a1.66,1.66,0,0,0-.47,1.45L49.88,39l-6.75-3.55a1.67,1.67,0,0,0-.76-.18,1.7,1.7,0,0,0-.76.18L34.86,39l1.29-7.51A1.63,1.63,0,0,0,35.68,30l-5.46-5.32,7.55-1.1A1.62,1.62,0,0,0,39,22.69l3.37-6.84,3.38,6.84a1.59,1.59,0,0,0,1.22.89l7.55,1.1Z"/><path class="cls-2" d="M57.71,23.64a3.19,3.19,0,0,0-2.58-2.17l-6.84-1-3.06-6.2a3.19,3.19,0,0,0-5.72,0l-3.06,6.2-6.84,1a3.19,3.19,0,0,0-1.77,5.45l4.95,4.82-1.17,6.81a3.19,3.19,0,0,0,4.63,3.37l6.12-3.22,6.12,3.22a3.21,3.21,0,0,0,1.48.37h0a3.19,3.19,0,0,0,3.14-3.74L52,31.74l4.95-4.82A3.18,3.18,0,0,0,57.71,23.64ZM51,31.43l1.25,7.28A2.29,2.29,0,0,1,50,41.38h0a2.29,2.29,0,0,1-1.07-.26l-6.54-3.44-6.54,3.44a2.29,2.29,0,0,1-3.32-2.41l1.25-7.29-5.29-5.15a2.28,2.28,0,0,1,1.27-3.9l7.31-1.07,3.27-6.62a2.28,2.28,0,0,1,4.1,0l3.27,6.62L55,22.37a2.28,2.28,0,0,1,1.27,3.9Z"/><path class="cls-3" d="M66.07,50.66A4.85,4.85,0,0,0,60,48.42c-.48.17-1.06.36-1.72.55a22,22,0,0,0-4.39,1.82,5.52,5.52,0,0,0,0-1.22,4,4,0,0,0-4.35-3.81,52.12,52.12,0,0,1-7.68-.23A54.14,54.14,0,0,0,33,45.48c-2.82.32-8.12,2.3-12.81,5.47-1.93,1.28-4,2.8-5.5,3.9l-.71.52a1.36,1.36,0,1,0,1.6,2.19l.71-.52c1.49-1.1,3.53-2.59,5.41-3.84,4.55-3.08,9.53-4.8,11.59-5a52.8,52.8,0,0,1,8.31.06,54.77,54.77,0,0,0,8.12.23c1.2-.1,1.41,1.28,1.43,1.45.13,1-.35,2.75-3,3.25a30.14,30.14,0,0,1-7.38,0h-.42a.74.74,0,0,0-.25,0,1.62,1.62,0,0,0-1.66.54A1.36,1.36,0,0,0,38.28,55c.34.74,1,.8,1.64.85h.45a52.17,52.17,0,0,0,6.46.35,13.27,13.27,0,0,0,2.32-.2,10.45,10.45,0,0,0,3.69-1.46,22.87,22.87,0,0,1,6.15-3c.73-.21,1.36-.41,1.88-.6a2.13,2.13,0,0,1,2.79.93,2.26,2.26,0,0,1-.94,3C58.83,57.55,46.32,65.15,40,64.78a53.06,53.06,0,0,1-11.86-2.44,3.43,3.43,0,0,0-3.26.56l-2.4,1.88a1.35,1.35,0,1,0,1.67,2.13L26.56,65a.77.77,0,0,1,.74-.11,54.94,54.94,0,0,0,12.54,2.57l.59,0c8.69,0,23.68-10.31,23.83-10.41A5,5,0,0,0,66.07,50.66Z"/></svg>