<?xml version="1.0" encoding="UTF-8"?><svg id="Layer_1" xmlns="http://www.w3.org/2000/svg" viewBox="0 0 80 80"><path d="M54.19,50.49V29.51c3.92-.8,6.87-4.26,6.88-8.42,0-4.74-3.85-8.59-8.59-8.59-4.74,0-8.59,3.85-8.59,8.59,0,.78,.14,1.53,.34,2.25l-16.03,13c-1.58-1.95-3.95-3.22-6.65-3.22-4.74,0-8.59,3.85-8.59,8.59,0,4.74,3.85,8.59,8.59,8.59,2.78,0,5.22-1.34,6.79-3.39l15.84,9.89c-.17,.67-.29,1.37-.29,2.1,0,4.74,3.85,8.59,8.59,8.59,4.74,0,8.59-3.85,8.59-8.59,0-4.15-2.96-7.62-6.88-8.42Zm-3.44,0c-2.06,.42-3.84,1.6-5.07,3.22l-15.84-9.89c.17-.67,.29-1.37,.29-2.1,0-.78-.14-1.53-.34-2.25l16.03-13c1.23,1.52,2.94,2.64,4.93,3.04v20.97Z" fill="#2286e6"/><path d="M21.53,46.88c-2.84,0-5.15-2.32-5.16-5.16,0-2.84,2.32-5.15,5.16-5.16,2.84,0,5.15,2.32,5.16,5.16,0,2.84-2.32,5.15-5.16,5.16Z" fill="#e8f3fd"/><path d="M52.47,15.94c2.84,0,5.15,2.32,5.16,5.16,0,2.84-2.32,5.15-5.16,5.16-2.84,0-5.15-2.32-5.16-5.16,0-2.84,2.32-5.15,5.16-5.16Z" fill="#e5f9e8"/><path d="M52.47,64.06c-2.84,0-5.15-2.32-5.16-5.16,0-2.84,2.32-5.15,5.16-5.16h0s0,0,0,0c2.84,0,5.15,2.32,5.16,5.16,0,2.84-2.32,5.15-5.16,5.16Z" fill="#ffdc99"/></svg>