<svg id="Layer_1" data-name="Layer 1" xmlns="http://www.w3.org/2000/svg" viewBox="0 0 80 80"><defs><style>.cls-1{fill:#2286e6;}.cls-2{fill:#00c622;}</style></defs><path class="cls-1" d="M42.12,50a5.19,5.19,0,0,0,0-7.3l-4.86-4.86a5.19,5.19,0,0,0-7.3,0,1.72,1.72,0,0,0,2.44,2.43,1.69,1.69,0,0,1,1.21-.5,1.73,1.73,0,0,1,1.22.5l4.86,4.86a1.73,1.73,0,0,1,0,2.43A1.72,1.72,0,0,0,42.12,50Z"/><path class="cls-2" d="M22.31,60.12,36.06,46.37a1.72,1.72,0,0,0-2.43-2.43L19.88,57.69a1.72,1.72,0,1,0,2.43,2.43"/><path class="cls-1" d="M40,32.71l-5.17,5.17a1.72,1.72,0,0,0,2.43,2.43l5.17-5.17A1.72,1.72,0,1,0,40,32.71"/><path class="cls-1" d="M44.86,37.57l-5.17,5.17a1.72,1.72,0,0,0,2.43,2.43L47.29,40a1.72,1.72,0,1,0-2.43-2.43"/><path class="cls-2" d="M57.19,58.91v1.72a3.44,3.44,0,1,0-3.44-3.44,3.44,3.44,0,0,0,3.44,3.44V57.19h0Z"/><path class="cls-1" d="M57.19,46.88a4.86,4.86,0,0,0-.56,0L50.71,41l-2.2-2.2,5.9-5.9h4.15A1.72,1.72,0,0,0,60,32.05L67.26,20a1.74,1.74,0,0,0-.26-2.1L62.13,13A1.72,1.72,0,0,0,60,12.74L48,20a1.72,1.72,0,0,0-.84,1.47v4.15l-5.89,5.9-1.71-1.7A13.73,13.73,0,0,0,26.24,12.5a13.52,13.52,0,0,0-4.61.8,1.69,1.69,0,0,0-1.1,1.24A1.71,1.71,0,0,0,21,16.13l7,7-.81,4.05L23.16,28l-7-7a1.73,1.73,0,0,0-2.84.64A13.74,13.74,0,0,0,26.24,40,14.7,14.7,0,0,0,28,39.86l-14,14a5.15,5.15,0,0,0,0,7.29L18.87,66a5.15,5.15,0,0,0,7.29,0l15.06-15,2,2,3.71,3.71c0,.18,0,.35,0,.56A10.32,10.32,0,1,0,57.19,46.88Zm0,17.18a6.89,6.89,0,0,1-6.88-6.87,6.39,6.39,0,0,1,.11-.95,1.74,1.74,0,0,0-.49-1.45l-4.3-4.3-3.22-3.22,0,0a1.73,1.73,0,0,0-1.39-.5,1.75,1.75,0,0,0-1.26.77l-.16.23L23.73,63.56a1.68,1.68,0,0,1-1.22.5,1.65,1.65,0,0,1-1.21-.5L16.44,58.7a1.65,1.65,0,0,1-.5-1.21,1.68,1.68,0,0,1,.5-1.22L32.27,40.44l.23-.16A1.75,1.75,0,0,0,33.27,39a1.73,1.73,0,0,0-.5-1.39l0,0-1.24-1.24A1.72,1.72,0,0,0,29.7,36a10.48,10.48,0,0,1-3.46.59,10.28,10.28,0,0,1-10.3-10.3c0-.18,0-.36,0-.53l5.4,5.39a1.72,1.72,0,0,0,1.55.47L29,30.36A1.73,1.73,0,0,0,30.36,29l1.21-6.08a1.72,1.72,0,0,0-.47-1.55L25.71,16c.17,0,.35,0,.53,0a10.28,10.28,0,0,1,10.3,10.3A10.44,10.44,0,0,1,36,29.7a1.72,1.72,0,0,0,.4,1.79l2.43,2.43L40,35.14a1.73,1.73,0,0,0,2.43,0l7.62-7.62a1.72,1.72,0,0,0,.5-1.21V22.42l10.1-6,3,3-6,10.1H53.7a1.72,1.72,0,0,0-1.22.5l-7.62,7.62a1.72,1.72,0,0,0,0,2.43l3.42,3.42,6.51,6.51a1.72,1.72,0,0,0,1.45.49,6.39,6.39,0,0,1,.95-.11,6.88,6.88,0,0,1,0,13.75Z"/></svg>