<svg id="Layer_1" data-name="Layer 1" xmlns="http://www.w3.org/2000/svg" viewBox="0 0 155 119"><title>woorank help icons</title><rect x="76.5" y="17.3" width="3" height="11" fill="#a02622"/><path d="M77.9,25.9v88.2c23-16.3,70.4-9.5,70.4-9.5V15.1C106.4,6.9,77.9,25.9,77.9,25.9Z" fill="#d9534f" stroke="#a02622" stroke-miterlimit="10" stroke-width="1.03"/><path d="M6.6,15.1v89.6s47.4-6.8,70.4,9.5V25.9S48.6,6.9,6.6,15.1Z" fill="#d9534f" stroke="#a02622" stroke-miterlimit="10" stroke-width="1.03"/><path d="M77.9,17.7V106c23-16.3,70.4-9.5,70.4-9.5V6.9C106.4-1.2,77.9,17.7,77.9,17.7Z" fill="#fff"/><path d="M6.6,6.9V96.5S54,89.7,77.1,106V17.7S48.6-1.2,6.6,6.9Z" fill="#fff"/><path d="M104,7.5C87.6,11.3,77.9,17.7,77.9,17.7V106c8.7-6.1,20.7-9,32.5-10.1C98.9,62.5,101.6,25.7,104,7.5Z" fill="#fbeded"/><path d="M24.9,4.9a109.9,109.9,0,0,0-18.2,2V96.5a175.2,175.2,0,0,1,19.8-1.4C18.6,61,21.8,25.1,24.9,4.9Z" fill="#fbeded"/><path d="M63.6,99.5A49.2,49.2,0,0,1,77.1,106V17.7a74,74,0,0,0-15-7C59,30.9,55.9,66,63.6,99.5Z" fill="#fbeded"/><path d="M12,16.9c35.5-6.9,59.5,9.2,59.5,9.2" fill="none" stroke="#eca9a7" stroke-linecap="round" stroke-miterlimit="10"/><path d="M12,30.4c35.5-6.9,59.5,9.2,59.5,9.2" fill="none" stroke="#eca9a7" stroke-linecap="round" stroke-miterlimit="10"/><path d="M12,42.8C47.5,35.9,71.5,52,71.5,52" fill="none" stroke="#eca9a7" stroke-linecap="round" stroke-miterlimit="10"/><path d="M12,56.3c35.5-6.9,59.5,9.2,59.5,9.2" fill="none" stroke="#eca9a7" stroke-linecap="round" stroke-miterlimit="10"/><path d="M12,69.7c35.5-6.9,59.5,9.2,59.5,9.2" fill="none" stroke="#eca9a7" stroke-linecap="round" stroke-miterlimit="10"/><path d="M12,83.1c35.5-6.9,59.5,9.2,59.5,9.2" fill="none" stroke="#eca9a7" stroke-linecap="round" stroke-miterlimit="10"/><path d="M148.4,99.5S101,92.7,77.9,109m0,.5" fill="none" stroke="#a02622" stroke-linecap="round" stroke-miterlimit="10" stroke-width="1.03"/><path d="M77.4,109c-23-16.3-70.4-9.5-70.4-9.5m70.4,10" fill="none" stroke="#a02622" stroke-linecap="round" stroke-miterlimit="10" stroke-width="1.03"/><path d="M77.9,17.7s28.4-19,70.4-10.8V96.5S101,89.7,77.9,106m0,.5" fill="none" stroke="#a02622" stroke-linecap="round" stroke-miterlimit="10"/><path d="M77.1,106C54,89.7,6.6,96.5,6.6,96.5V6.9c42-8.1,70.4,10.8,70.4,10.8m0,88.8" fill="none" stroke="#a02622" stroke-linecap="round" stroke-miterlimit="10"/><path d="M82,26.1s24-16,59.5-9.2" fill="none" stroke="#eca9a7" stroke-linecap="round" stroke-miterlimit="10"/><path d="M82,39.5s24-16,59.5-9.2" fill="none" stroke="#eca9a7" stroke-linecap="round" stroke-miterlimit="10"/><path d="M82,52s24-16,59.5-9.2" fill="none" stroke="#eca9a7" stroke-linecap="round" stroke-miterlimit="10"/><path d="M82,65.4s24-16,59.5-9.2" fill="none" stroke="#eca9a7" stroke-linecap="round" stroke-miterlimit="10"/><path d="M82,78.8s24-16,59.5-9.2" fill="none" stroke="#eca9a7" stroke-linecap="round" stroke-miterlimit="10"/><path d="M82,92.3s24-16,59.5-9.2" fill="none" stroke="#eca9a7" stroke-linecap="round" stroke-miterlimit="10"/><path d="M148.4,102.5S101,95.7,77.9,112m0,.5" fill="none" stroke="#a02622" stroke-linecap="round" stroke-miterlimit="10" stroke-width="1.03"/><path d="M77.4,112c-23-16.3-70.4-9.5-70.4-9.5m70.4,10" fill="none" stroke="#a02622" stroke-linecap="round" stroke-miterlimit="10" stroke-width="1.03"/></svg>