<svg id="Layer_1" data-name="Layer 1" xmlns="http://www.w3.org/2000/svg" viewBox="0 0 155 119"><title>woorank help icons</title><path d="M77.5,1.8c-35.4,0-64,22.3-64,49.8,0,16.8,10.8,31.7,27.2,40.7L27.8,117.2,57.8,99a80.9,80.9,0,0,0,19.7,2.4c35.4,0,64-22.3,64-49.8S112.9,1.8,77.5,1.8Z" fill="#d1f5e0" fill-rule="evenodd"/><path d="M69.2,1.8C37.8,4.9,13.5,25.8,13.5,51.2c0,16.8,10.8,31.7,27.2,40.7L27.8,116.8l30-18.3a80.6,80.6,0,0,0,17.4,2.4C15.3,57.3,49.9,17.8,69.2,1.8Z" fill="#7ee2a8"/><path d="M77.5,1.8c-35.4,0-64,22.3-64,49.8,0,16.8,10.8,31.7,27.2,40.7L27.8,117.2,57.8,99a80.9,80.9,0,0,0,19.7,2.4c35.4,0,64-22.3,64-49.8S112.9,1.8,77.5,1.8Z" fill="none" stroke="#27ae60" stroke-miterlimit="10" fill-rule="evenodd"/><path d="M63.7,33.5l2.7-2a19.1,19.1,0,0,1,3.1-1.7,19.5,19.5,0,0,1,3.7-1.1,20.8,20.8,0,0,1,4.3-.4,17.8,17.8,0,0,1,5.7.9,12.8,12.8,0,0,1,4.4,2.5,10.9,10.9,0,0,1,2.8,3.8,12.3,12.3,0,0,1,1,5,12.7,12.7,0,0,1-.8,4.7,13.2,13.2,0,0,1-2,3.5,14.9,14.9,0,0,1-2.6,2.5l-2.7,2L81.1,55A3.7,3.7,0,0,0,80,57.1l-.8,5.2h-6l-.6-5.8a4.8,4.8,0,0,1,.5-3,9,9,0,0,1,1.9-2.3l2.6-2A23.6,23.6,0,0,0,80.2,47a11.3,11.3,0,0,0,2.1-2.6,6.8,6.8,0,0,0,.8-3.5,5.3,5.3,0,0,0-.5-2.3,5.3,5.3,0,0,0-1.3-1.8,6.1,6.1,0,0,0-2.1-1.1,8.3,8.3,0,0,0-2.6-.4,11.6,11.6,0,0,0-3.5.4l-2.4,1-1.7,1a2.3,2.3,0,0,1-1.2.4A1.9,1.9,0,0,1,66,37.2Zm6.8,42.2a5.5,5.5,0,0,1,.4-2.1A5.2,5.2,0,0,1,72,71.9a5.4,5.4,0,0,1,1.7-1.1,5.4,5.4,0,0,1,2.1-.4,5.2,5.2,0,0,1,2.1.4,5.7,5.7,0,0,1,1.7,1.1,5.4,5.4,0,0,1,1.2,6,5.4,5.4,0,0,1-1.2,1.7,5.5,5.5,0,0,1-3.8,1.5,5.6,5.6,0,0,1-2.1-.4A5.2,5.2,0,0,1,72,79.5a5.3,5.3,0,0,1-1.1-1.7A5.5,5.5,0,0,1,70.5,75.7Z" fill="#27ae60"/><line x1="28.4" y1="44.3" x2="51" y2="44.3" fill="none" stroke="#d1f5e0" stroke-linecap="round" stroke-miterlimit="10" stroke-width="3"/><line x1="26.2" y1="51" x2="48.7" y2="51" fill="none" stroke="#d1f5e0" stroke-linecap="round" stroke-miterlimit="10" stroke-width="3"/><line x1="28.4" y1="57.8" x2="51" y2="57.8" fill="none" stroke="#d1f5e0" stroke-linecap="round" stroke-miterlimit="10" stroke-width="3"/></svg>