<?xml version="1.0" encoding="UTF-8"?><svg id="Layer_1" xmlns="http://www.w3.org/2000/svg" viewBox="0 0 80 80"><path d="M46.63,20.74c0-3.65-2.96-6.6-6.6-6.6s-6.6,2.96-6.6,6.6h-7.15v7.7h27.51v-7.7h-7.15Z" fill="#fee5e5" isolation="isolate" opacity="1"/><path d="M57.22,19.36h-8.8c-.96-4.65-5.5-7.64-10.15-6.69-3.37,.69-5.99,3.32-6.69,6.69h-8.8c-2.85,0-5.16,2.31-5.16,5.16h0V62.34c0,2.85,2.31,5.16,5.16,5.16,.02,0,.04,0,.06,0H57.22c2.85,0,5.15-2.31,5.15-5.16V24.52c0-2.85-2.3-5.15-5.15-5.16Zm-22.86,2.94c.33-.32,.51-.76,.51-1.22,0-2.85,2.31-5.16,5.16-5.16,2.85,0,5.16,2.31,5.16,5.16h0c0,.46,.18,.9,.51,1.23,.32,.32,.76,.5,1.21,.51h3.44c.16,0,.32,.04,.47,.09h.19c.65,.26,1.09,.88,1.1,1.58v1.76H27.99v-1.72c0-.46,.19-.89,.51-1.22l.09-.06c.29-.29,.69-.44,1.1-.43h3.5c.44-.01,.87-.2,1.18-.52Zm24.58,40.04c0,.95-.77,1.72-1.72,1.73H22.84c-.95,0-1.72-.78-1.73-1.73V24.52c0-.95,.77-1.72,1.72-1.72,0,0,0,0,.01,0h2.02c-.19,0-.31,1.1-.31,1.72v3.43c0,.94,.75,1.71,1.69,1.72,0,0,.01,0,.02,0h27.51c.94,0,1.71-.75,1.72-1.69,0,0,0-.01,0-.02v-3.43c0-.3-.03-.6-.09-.9-.06-.28-.13-.55-.22-.81h2.04c.95,0,1.72,.78,1.72,1.73V62.34Z" fill="#2286e6"/><circle cx="40.03" cy="21.08" r="1.72" fill="#2286e6"/><path d="M28.47,38.76h23.11c.95,0,1.72-.77,1.72-1.72s-.77-1.72-1.72-1.72H28.47c-.95,0-1.72,.77-1.72,1.72,0,.95,.77,1.71,1.72,1.72" fill="#f84c4c"/><path d="M28.47,45.64h23.11c.95,0,1.72-.77,1.72-1.72,0-.95-.77-1.71-1.72-1.72H28.47c-.95,0-1.72,.77-1.72,1.72s.77,1.72,1.72,1.72h0" fill="#f84c4c"/><path d="M28.47,52.51h12.65c.95,0,1.72-.77,1.72-1.72,0-.95-.77-1.71-1.72-1.72h-12.65c-.95,0-1.72,.77-1.72,1.72s.77,1.72,1.72,1.72h0" fill="#fb9999" isolation="isolate" opacity="1"/></svg>