<svg id="Layer_1" data-name="Layer 1" xmlns="http://www.w3.org/2000/svg" viewBox="0 0 155 119"><title>woorank help icons</title><polygon points="60.4 56.6 93.6 56.6 77 65.4 60.4 56.6" fill="#5f486b"/><path d="M80.6,61.2c-3.2,2.9-17.1,15.1-16,51.4h59.8C124.3,78.8,105,62.4,80.6,61.2Z" fill="#f3f0f5"/><path d="M80.6,61.2H77.6c-25.8,0-46.7,12.8-46.9,51.6H64.5C64.5,78.4,77.3,64.1,80.6,61.2Z" fill="#c4b3cc"/><path d="M79.2,9.8H77.5a24.6,24.6,0,0,0-1,49.3C70,48,59,34,79.2,9.8Z" fill="#c4b3cc"/><path d="M79.2,9.8C59,33,70,52,76.5,59h1A24.6,24.6,0,0,0,79.2,9.8Z" fill="#f3f0f5"/><path d="M80.6,61.2H77.6c-25.8,0-46.7,12.8-46.9,51.6h93.6C124.3,78.8,105,62.4,80.6,61.2Z" fill="none" stroke="#5f486b" stroke-miterlimit="10" stroke-width="1.04"/><path d="M76.5,59h1A24.6,24.6,0,0,0,79.2,9.8H77.5a24.6,24.6,0,0,0-1,49.3Z" fill="none" stroke="#5f486b" stroke-miterlimit="10" stroke-width="1.04"/><polygon points="60.9 62.3 60.9 57.1 77 61.4 77 67.8 60.9 62.3" fill="#c4b3cc" stroke="#5f486b" stroke-miterlimit="10" stroke-width="1.07"/><polygon points="93.6 62.3 93.6 57.1 77.5 61.4 77.5 67.8 93.6 62.3" fill="#c4b3cc" stroke="#5f486b" stroke-miterlimit="10" stroke-width="1.07"/><path d="M82.7,82.8,78.5,70.1a3.7,3.7,0,0,0,2.1-3.5c0-2.1-1.4-3.7-3.1-3.7s-3.1,1.7-3.1,3.7a3.7,3.7,0,0,0,2.1,3.5L72.3,82.8l4.5,29.6h1l4.9-29.6h0Z" fill="#fff" stroke="#5f486b" stroke-miterlimit="10" stroke-width="1.04"/><path d="M54.3,30.9s-2-5-6-3,1,14,6,10" fill="#c4b3cc"/><path d="M54.3,30.9s-2-5-6-3,1,14,6,10" fill="none" stroke="#5f486b" stroke-miterlimit="10" stroke-width="1.04"/><path d="M100.8,32.9s2-5,6-3-1,14-6,10" fill="#f3f0f5"/><path d="M100.8,32.9s2-5,6-3-1,14-6,10" fill="none" stroke="#5f486b" stroke-miterlimit="10" stroke-width="1.04"/><path d="M85.8,9.4s5-1,7,2a11,11,0,0,1,2,5.6A25.8,25.8,0,0,0,90,13.3,19.2,19.2,0,0,0,84.8,11Z" fill="#c4b3cc"/><path d="M85.8,9.4s4.5-.5,7,2,2,5.6,2,5.6A25.8,25.8,0,0,0,90,13.3,19.2,19.2,0,0,0,84.8,11Z" fill="none" stroke="#5f486b" stroke-miterlimit="10" stroke-width="1.04"/><path d="M86.3,9.9s-7,4-10,7a59.2,59.2,0,0,0-5.5,6.5l2.5-7.5S73,15,70,17a50.3,50.3,0,0,0-6.7,5.9l.5-5.5a51.6,51.6,0,0,0-8.5,6.5s.4-9.3,7-14S82.3,5.9,86.3,9.9Z" fill="#9476a3"/><path d="M86.8,9.4s-7.5,4.5-10.5,7.5a59.2,59.2,0,0,0-5.5,6.5l2.5-7.5a23,23,0,0,0-4.8,2.6,31.9,31.9,0,0,0-5.2,4.4l.5-5.5a51.6,51.6,0,0,0-8.5,6.5s.4-9.3,7-14S77.8,5.4,86.8,9.4Z" fill="none" stroke="#5f486b" stroke-miterlimit="10" stroke-width="1.04"/><line x1="40" y1="96" x2="40" y2="112.8" fill="none" stroke="#5f486b" stroke-linecap="round" stroke-miterlimit="10" stroke-width="1.04"/><line x1="113" y1="96" x2="113" y2="112.8" fill="none" stroke="#5f486b" stroke-linecap="round" stroke-miterlimit="10" stroke-width="1.04"/><rect x="89.5" y="82.5" width="15" height="3" fill="none" stroke="#5f486b" stroke-linecap="round" stroke-miterlimit="10" stroke-width="1.04"/></svg>