<svg id="Layer_1" data-name="Layer 1" xmlns="http://www.w3.org/2000/svg" viewBox="0 0 155 119"><title>woorank help icons</title><path d="M44.9,45a18.9,18.9,0,0,0-.2-6.8l4-1.8-3.3-7.3-4,1.8a18.9,18.9,0,0,0-5-4.7L38,22.1l-7.5-2.8-1.6,4.2a18.9,18.9,0,0,0-6.8.2l-1.8-4L13,22.9l1.8,4a18.9,18.9,0,0,0-4.7,5L6,30.3,3.2,37.8l4.2,1.6a18.9,18.9,0,0,0,.2,6.8L3.5,48l3.3,7.3,4-1.8a18.9,18.9,0,0,0,5,4.7l-1.6,4.2,7.5,2.8L23.3,61a18.9,18.9,0,0,0,6.8-.2l1.8,4,7.3-3.3-1.8-4a18.9,18.9,0,0,0,4.7-5l4.2,1.6L49,46.6ZM26.1,47.7a5.5,5.5,0,1,1,5.5-5.5A5.5,5.5,0,0,1,26.1,47.7Z" fill="#ccd1d9"/><path d="M21.3,21.7l-1-2.2L13,22.9l1.8,4a18.9,18.9,0,0,0-4.7,5L6,30.3,3.2,37.8l4.2,1.6a18.9,18.9,0,0,0,.2,6.8L3.5,48l3.3,7.3,4-1.8a18.9,18.9,0,0,0,5,4.7l-1.6,4.2,7.5,2.8L23.3,61l2.7.2C11.7,47.8,16.5,31.3,21.3,21.7Z" fill="#aab2bd"/><path d="M49,46.6,44.9,45a18.9,18.9,0,0,0-.2-6.8l4-1.8-3.3-7.3-4,1.8a18.9,18.9,0,0,0-5-4.7L38,22.1l-7.5-2.8-1.6,4.2a18.9,18.9,0,0,0-6.8.2l-1.8-4L13,22.9l1.8,4a18.9,18.9,0,0,0-4.7,5L6,30.3,3.2,37.8l4.2,1.6a18.9,18.9,0,0,0,.2,6.8L3.5,48l3.3,7.3,4-1.8a18.9,18.9,0,0,0,5,4.7l-1.6,4.2,7.5,2.8L23.3,61a18.9,18.9,0,0,0,6.8-.2l1.8,4,7.3-3.3-1.8-4a18.9,18.9,0,0,0,4.7-5l4.2,1.6Z" fill="none" stroke="#353b48" stroke-miterlimit="10"/><path d="M26.1,47.7a5.5,5.5,0,1,1,5.5-5.5A5.5,5.5,0,0,1,26.1,47.7Z" fill="none" stroke="#353b48" stroke-miterlimit="10"/><path d="M77.4,73a18.9,18.9,0,0,0-4.5-10.8l3.2-3.2-2.1-2.1-3.2,3.2A18.9,18.9,0,0,0,60,55.6h.2c-1.3,1.3-3.4,1.9-5.2,4.4a15.5,15.5,0,0,1,3,0c7.7,0,15,7.3,15,15S65.7,89,58,89a14,14,0,0,1-3.7-.5A35.1,35.1,0,0,0,60,94.2v-.8a18.9,18.9,0,0,0,10.8-4.5l3.2,3.2,2.1-2.1-3.2-3.2A18.9,18.9,0,0,0,77.4,76H82V73Z" fill="#ccd1d9"/><path d="M54.3,88.5A14,14,0,0,1,44,75c0-6.7,5.6-13.7,12-15,2-2,2.8-3.1,4.2-4.4H60V51H57v4.6a18.9,18.9,0,0,0-10.8,4.5l-3.2-3.2-2.1,2.1,3.2,3.2A18.9,18.9,0,0,0,39.6,73H35v3h4.6a18.9,18.9,0,0,0,4.5,10.8l-3.2,3.2,2.1,2.1,3.2-3.2A18.9,18.9,0,0,0,57,93.4V98h3V94.2A35.1,35.1,0,0,1,54.3,88.5Z" fill="#aab2bd"/><path d="M77.4,73a18.9,18.9,0,0,0-4.5-10.8l3.2-3.2-2.1-2.1-3.2,3.2A18.9,18.9,0,0,0,60,55.6V51H57v4.6a18.9,18.9,0,0,0-10.8,4.5l-3.2-3.2-2.1,2.1,3.2,3.2A18.9,18.9,0,0,0,39.6,73H35v3h4.6a18.9,18.9,0,0,0,4.5,10.8l-3.2,3.2,2.1,2.1,3.2-3.2A18.9,18.9,0,0,0,57,93.4V98h3V93.4a18.9,18.9,0,0,0,10.8-4.5l3.2,3.2,2.1-2.1-3.2-3.2A18.9,18.9,0,0,0,77.4,76H82V73Z" fill="none" stroke="#353b48" stroke-miterlimit="10"/><path d="M58.5,89A14.5,14.5,0,1,1,73,74.5,14.5,14.5,0,0,1,58.5,89Z" fill="none" stroke="#353b48" stroke-miterlimit="10" stroke-width="1.04"/><path d="M135,40.4v-4l-6.6.2a26.9,26.9,0,0,0-1.2-5.7l6.1-2.5-1.5-3.7-6.1,2.5a27,27,0,0,0-4.2-6l4.5-4.8-2.9-2.7-4.5,4.8a27.1,27.1,0,0,0-4.9-3.1l2.5-6.1-3.7-1.5-2.5,6.1a26.9,26.9,0,0,0-7.2-1.3L102.4,6h-4l.2,6.6A26.9,26.9,0,0,0,93,13.9L90.4,7.8,86.7,9.4l2.5,6.1a27,27,0,0,0-6,4.2l-4.8-4.5-2.7,2.9,4.8,4.5a27.1,27.1,0,0,0-3.1,4.9l-6.1-2.5-1.5,3.7,6.1,2.5a26.9,26.9,0,0,0-1.3,7.2l-6.6.2v4l6.6-.2A26.9,26.9,0,0,0,75.9,48l-6.1,2.5,1.5,3.7,6.1-2.5a27,27,0,0,0,4.2,6l-4.5,4.8,2.9,2.7,4.5-4.8a27.1,27.1,0,0,0,4.9,3.1l-2.5,6.1,3.7,1.5,2.5-6.1a26.9,26.9,0,0,0,7.2,1.3l.2,6.6h4l-.2-6.6a26.9,26.9,0,0,0,5.7-1.2l2.5,6.1,3.7-1.5-2.5-6.1a27,27,0,0,0,6-4.2l4.8,4.5,2.7-2.9-4.8-4.5a27.1,27.1,0,0,0,3.1-4.9l6.1,2.5,1.5-3.7-6.1-2.5a26.9,26.9,0,0,0,1.3-7.2ZM101.3,50A10,10,0,1,1,111,39.7,10,10,0,0,1,101.3,50Z" fill="#ccd1d9"/><path d="M102.6,12.4,102.4,6h-4l.2,6.6A26.9,26.9,0,0,0,93,13.9L90.4,7.8,86.7,9.4l2.5,6.1a27,27,0,0,0-6,4.2l-4.8-4.5-2.7,2.9,4.8,4.5a27.1,27.1,0,0,0-3.1,4.9l-6.1-2.5-1.5,3.7,6.1,2.5a26.9,26.9,0,0,0-1.3,7.2l-6.6.2v4l6.6-.2A26.9,26.9,0,0,0,75.9,48l-6.1,2.5,1.5,3.7,6.1-2.5a27,27,0,0,0,4.2,6l-4.5,4.8,2.9,2.7,4.5-4.8a27.1,27.1,0,0,0,4.9,3.1l-2.5,6.1,3.7,1.5,2.5-6.1a26.9,26.9,0,0,0,7.2,1.3l.2,6.6h4l-.2-6.6h.4C71.7,41.8,93.5,19.6,102.6,12.4Z" fill="#aab2bd"/><path d="M135,40.4v-4l-6.6.2a26.9,26.9,0,0,0-1.2-5.7l6.1-2.5-1.5-3.7-6.1,2.5a27,27,0,0,0-4.2-6l4.5-4.8-2.9-2.7-4.5,4.8a27.1,27.1,0,0,0-4.9-3.1l2.5-6.1-3.7-1.5-2.5,6.1a26.9,26.9,0,0,0-7.2-1.3L102.4,6h-4l.2,6.6A26.9,26.9,0,0,0,93,13.9L90.4,7.8,86.7,9.4l2.5,6.1a27,27,0,0,0-6,4.2l-4.8-4.5-2.7,2.9,4.8,4.5a27.1,27.1,0,0,0-3.1,4.9l-6.1-2.5-1.5,3.7,6.1,2.5a26.9,26.9,0,0,0-1.3,7.2l-6.6.2v4l6.6-.2A26.9,26.9,0,0,0,75.9,48l-6.1,2.5,1.5,3.7,6.1-2.5a27,27,0,0,0,4.2,6l-4.5,4.8,2.9,2.7,4.5-4.8a27.1,27.1,0,0,0,4.9,3.1l-2.5,6.1,3.7,1.5,2.5-6.1a26.9,26.9,0,0,0,7.2,1.3l.2,6.6h4l-.2-6.6a26.9,26.9,0,0,0,5.7-1.2l2.5,6.1,3.7-1.5-2.5-6.1a27,27,0,0,0,6-4.2l4.8,4.5,2.7-2.9-4.8-4.5a27.1,27.1,0,0,0,3.1-4.9l6.1,2.5,1.5-3.7-6.1-2.5a26.9,26.9,0,0,0,1.3-7.2Z" fill="none" stroke="#353b48" stroke-miterlimit="10"/><path d="M101.3,50A10,10,0,1,1,111,39.7,10,10,0,0,1,101.3,50Z" fill="none" stroke="#353b48" stroke-miterlimit="10"/><path d="M145,85.3a14.3,14.3,0,0,0-.7-5.1l2.9-1.7-3.1-5.2-2.9,1.7a14.3,14.3,0,0,0-4.1-3.1l.9-3.3L132.1,67l-.9,3.3a14.3,14.3,0,0,0-5.1.7l-1.7-2.9-5.2,3.1,1.7,2.9a14.3,14.3,0,0,0-3.1,4.1l-3.3-.9-1.5,5.9,3.3.9a14.3,14.3,0,0,0,.7,5.1L114,90.9l3.1,5.2,2.9-1.7a14.3,14.3,0,0,0,4.1,3.1l-.9,3.3,5.9,1.5.9-3.3a14.3,14.3,0,0,0,5.1-.7l1.7,2.9,5.2-3.1-1.7-2.9a14.3,14.3,0,0,0,3.1-4.1l3.3.9,1.5-5.9Zm-14,3.5a4.2,4.2,0,1,1,3.7-4.6A4.2,4.2,0,0,1,131,88.8Z" fill="#ccd1d9"/><path d="M125.3,69.6l-.9-1.6-5.2,3.1,1.7,2.9a14.3,14.3,0,0,0-3.1,4.1l-3.3-.9-1.5,5.9,3.3.9a14.3,14.3,0,0,0,.7,5.1L114,90.9l3.1,5.2,2.9-1.7a14.3,14.3,0,0,0,4.1,3.1l-.9,3.3,5.9,1.5.9-3.3h2.1C120.2,90.1,122.5,77.2,125.3,69.6Z" fill="#aab2bd"/><path d="M148.3,86.2l-3.3-.9a14.3,14.3,0,0,0-.7-5.1l2.9-1.7-3.1-5.2-2.9,1.7a14.3,14.3,0,0,0-4.1-3.1l.9-3.3L132.1,67l-.9,3.3a14.3,14.3,0,0,0-5.1.7l-1.7-2.9-5.2,3.1,1.7,2.9a14.3,14.3,0,0,0-3.1,4.1l-3.3-.9-1.5,5.9,3.3.9a14.3,14.3,0,0,0,.7,5.1L114,90.9l3.1,5.2,2.9-1.7a14.3,14.3,0,0,0,4.1,3.1l-.9,3.3,5.9,1.5.9-3.3a14.3,14.3,0,0,0,5.1-.7l1.7,2.9,5.2-3.1-1.7-2.9a14.3,14.3,0,0,0,3.1-4.1l3.3.9Z" fill="none" stroke="#353b48" stroke-miterlimit="10"/><path d="M131,88.8a4.2,4.2,0,1,1,3.7-4.6A4.2,4.2,0,0,1,131,88.8Z" fill="none" stroke="#353b48" stroke-miterlimit="10"/><circle cx="58" cy="75" r="4.5" fill="#aab2bd" stroke="#353b48" stroke-miterlimit="10"/></svg>