<svg id="Layer_1" data-name="Layer 1" xmlns="http://www.w3.org/2000/svg" viewBox="0 0 155 119"><title>woorank help icons</title><rect x="76.5" y="15.2" width="3.1" height="11.55" fill="#a02622"/><path d="M78,24.2v92.6c24.2-17.1,73.9-10,73.9-10V12.8C107.8,4.3,78,24.2,78,24.2Z" fill="#d9534f" stroke="#a02622" stroke-miterlimit="10"/><path d="M3.1,12.8v94.1s49.8-7.1,73.9,10V24.2S47.2,4.3,3.1,12.8Z" fill="#d9534f" stroke="#a02622" stroke-miterlimit="10"/><path d="M78,15.7v92.6c24.2-17.1,73.9-10,73.9-10V4.3C107.8-4.2,78,15.7,78,15.7Z" fill="#fff"/><path d="M3.1,4.3V98.3s49.8-7.1,73.9,10V15.7S47.2-4.2,3.1,4.3Z" fill="#fff"/><path d="M105.4,4.9C88.1,8.9,78,15.7,78,15.7v92.6c9.1-6.4,21.8-9.4,34.1-10.7C100,62.6,102.8,24,105.4,4.9Z" fill="#fbeded"/><path d="M22.3,2.2A115.4,115.4,0,0,0,3.1,4.3V98.3a184,184,0,0,1,20.8-1.4C15.6,61.1,19,23.4,22.3,2.2Z" fill="#fbeded"/><path d="M62.9,101.5A51.7,51.7,0,0,1,77,108.3V15.7A77.7,77.7,0,0,0,61.3,8.3C58.1,29.5,54.9,66.3,62.9,101.5Z" fill="#fbeded"/><path d="M8.8,14.8C46,7.6,71.2,24.4,71.2,24.4" fill="none" stroke="#eca9a7" stroke-linecap="round" stroke-miterlimit="10"/><path d="M8.8,28.9c37.2-7.2,62.5,9.6,62.5,9.6" fill="none" stroke="#eca9a7" stroke-linecap="round" stroke-miterlimit="10"/><path d="M8.8,42c37.2-7.2,62.5,9.6,62.5,9.6" fill="none" stroke="#eca9a7" stroke-linecap="round" stroke-miterlimit="10"/><path d="M8.8,56.1c37.2-7.2,62.5,9.6,62.5,9.6" fill="none" stroke="#eca9a7" stroke-linecap="round" stroke-miterlimit="10"/><path d="M8.8,70.2C46,63,71.2,79.8,71.2,79.8" fill="none" stroke="#eca9a7" stroke-linecap="round" stroke-miterlimit="10"/><path d="M8.8,84.3c37.2-7.2,62.5,9.6,62.5,9.6" fill="none" stroke="#eca9a7" stroke-linecap="round" stroke-miterlimit="10"/><path d="M151.9,101.5s-49.8-7.1-73.9,10m0,.6" fill="none" stroke="#a02622" stroke-linecap="round" stroke-miterlimit="10"/><path d="M77.3,111.4c-24.2-17.1-73.9-10-73.9-10M77.3,112" fill="none" stroke="#a02622" stroke-linecap="round" stroke-miterlimit="10"/><path d="M78,15.7S107.8-4.2,151.9,4.3V98.3s-49.8-7.1-73.9,10m0,.6" fill="none" stroke="#a02622" stroke-linecap="round" stroke-miterlimit="10"/><path d="M77,108.3c-24.2-17.1-73.9-10-73.9-10V4.3C47.2-4.2,77,15.7,77,15.7m0,93.2" fill="none" stroke="#a02622" stroke-linecap="round" stroke-miterlimit="10"/><path d="M82.3,24.4s25.2-16.8,62.5-9.6" fill="none" stroke="#eca9a7" stroke-linecap="round" stroke-miterlimit="10"/><path d="M82.3,38.5s25.2-16.8,62.5-9.6" fill="none" stroke="#eca9a7" stroke-linecap="round" stroke-miterlimit="10"/><path d="M82.3,51.6s25.2-16.8,62.5-9.6" fill="none" stroke="#eca9a7" stroke-linecap="round" stroke-miterlimit="10"/><path d="M82.3,65.7s25.2-16.8,62.5-9.6" fill="none" stroke="#eca9a7" stroke-linecap="round" stroke-miterlimit="10"/><path d="M82.3,79.8s25.2-16.8,62.5-9.6" fill="none" stroke="#eca9a7" stroke-linecap="round" stroke-miterlimit="10"/><path d="M82.3,93.9s25.2-16.8,62.5-9.6" fill="none" stroke="#eca9a7" stroke-linecap="round" stroke-miterlimit="10"/><path d="M151.9,104.6s-49.8-7.1-73.9,10m0,.6" fill="none" stroke="#a02622" stroke-linecap="round" stroke-miterlimit="10"/><path d="M77.3,114.6c-24.2-17.1-73.9-10-73.9-10m73.9,10.5" fill="none" stroke="#a02622" stroke-linecap="round" stroke-miterlimit="10"/></svg>