<svg xmlns="http://www.w3.org/2000/svg" viewBox="0 0 155 119"><title>woorank partnerships</title><g id="Layer_2" data-name="Layer 2"><polygon points="94.1 44.2 114.6 35.1 124 66.6 103.4 74.9 94.1 44.2" fill="#428bca"/><path d="M87,95.3l19.8-24.7c2.9-3.6,2.3-26.6-4.2-29.9l-18.7.9c-1.8-.3-8.9-2.3-11.8,1.3L52.4,67.6a8.4,8.4,0,0,0,1.3,11.8L75.3,96.7A8.4,8.4,0,0,0,87,95.3Z" fill="#428bca"/><path d="M106.5,80.3l-17-10.6a5.8,5.8,0,0,1-1.8-7.9l3.7,1.7C93,60.7,89.6,54,89.4,54l23.5,16a5.8,5.8,0,0,1,1.8,7.9l-.3.5A5.8,5.8,0,0,1,106.5,80.3Z" fill="#cfe2f2"/><rect x="81.5" y="73.8" width="28.5" height="11.38" rx="5.4" ry="5.4" transform="translate(56.7 -38.7) rotate(32)" fill="#cfe2f2"/><rect x="74.9" y="83.2" width="30.8" height="11.38" rx="5.4" ry="5.4" transform="translate(60.8 -34.4) rotate(32)" fill="#cfe2f2"/><rect x="66.3" y="89.6" width="28.5" height="11.38" rx="5.4" ry="5.4" transform="translate(62.7 -28.2) rotate(32)" fill="#cfe2f2"/><path d="M94.9,58.8,78.6,44.7c-1.7-1.4-6.1-2.7-11.3-3.5h0l-27-5L36.5,67.6l4.1,3.6c.2,3.6,2.2,7.4,5.1,9.1L71.4,96.4a9,9,0,0,0,12.4-2.9l14-22.3A9,9,0,0,0,94.9,58.8Z" fill="#ecf3fa"/><path d="M51.3,88.9l10.4-13a5.9,5.9,0,0,0-.9-8.3l-.5-.4a6,6,0,0,0-8.3.9L41.5,81a5.9,5.9,0,0,0,.9,8.3l.5.4A6,6,0,0,0,51.3,88.9Z" fill="#428bca"/><path d="M57.7,97.3,68.8,83.5a5.4,5.4,0,0,0-.8-7.6l-.5-.4a5.4,5.4,0,0,0-7.6.8L48.8,90.2a5.4,5.4,0,0,0,.8,7.6l.5.4A5.4,5.4,0,0,0,57.7,97.3Z" fill="#428bca"/><path d="M65.3,105.3,77.8,89.7a5.4,5.4,0,0,0-.8-7.6l-.5-.4a5.4,5.4,0,0,0-7.6.8L56.4,98.2a5.4,5.4,0,0,0,.8,7.6l.5.4A5.4,5.4,0,0,0,65.3,105.3Z" fill="#428bca"/><path d="M77.3,107.2,88.3,93.4a5.4,5.4,0,0,0-.8-7.6l-.5-.4a5.4,5.4,0,0,0-7.6.8L68.4,100.1a5.4,5.4,0,0,0,.8,7.6l.5.4A5.4,5.4,0,0,0,77.3,107.2Z" fill="#428bca"/><path d="M76,61.7l-.6-11.8a4.7,4.7,0,0,0-4.9-4.4H68.6a5.2,5.2,0,0,0-4.5,5.3l.7,11.4a4.7,4.7,0,0,0,4.9,4.4h1.9A4.7,4.7,0,0,0,76,61.7Z" fill="#428bca"/><path d="M74.8,52.3l15.7,2c2.2-1.3-4.8-7.7-6.1-10l17.1-1.4c-1.3-2.2-24.2-3.4-27.6-1.6l-7.5,4.8a4.7,4.7,0,0,0-1.7,6.3l1,1.7C66.9,56.3,72.6,53.5,74.8,52.3Z" fill="#428bca"/><path d="M11.9,16.8V61.7L40.1,73.9s9.1-14.3,10-25.5-.9-15.3-.9-15.3Z" fill="#2b5c86"/><path d="M0,9.7v53L33.3,77.2S44,60.4,45.1,47.1,44,29,44,29Z" fill="#428bca"/><circle cx="30.2" cy="69.8" r="3.1" fill="#2b5c86"/><path d="M143.8,18.2v42L117.5,71.6s-8.5-13.4-9.3-23.8.8-14.3.8-14.3Z" fill="#fff"/><path d="M155,11.6V61.2L123.9,74.7s-10-15.8-11-28.2,1-16.9,1-16.9Z" fill="#ecf3fa"/><circle cx="126.8" cy="67.8" r="2.9" fill="#fff"/><path d="M95.3,41.3s4.5,4.4,5.4,7.8S98,59.8,98,59.8l15.5,10.6,2.8-.7-5.3-11L108.4,50l-.4-7V38l-6.1,2.8Z" fill="#3876ac"/><polygon points="75.1 52.1 74.2 46.6 82.8 53.3 75.1 52.1" fill="#3876ac"/><path d="M48.9,71.5s-4.1,10.9,6.3,10.7c0,0-1.3,8.2,8.1,7,0,0-1.3,7.6,8.3,6.7,0,0-.3,7.7,9.7,6.4,0,0,6.8-8.1,7.4-9.6a6.4,6.4,0,0,0,.5-4.2c-.4-1.3-3.3-3.8-4.5-4.2a5.1,5.1,0,0,0-2.9.5l-2.8,2.3-.3-2.8-1.6-2.1-2.4-1.4H72.3l-2.7,1,.3-2.3L69,77.2l-1.3-1.6-2.1-1-1.9-.2-1.6.4,1-1.9-.9-3.5-2-2.2-2.4-1-2.3-.3-2.1,1Z" fill="#3876ac"/><path d="M49.5,89.9l13-15.4A36.3,36.3,0,0,0,49.5,89.9Z" fill="#2b5c86"/><path d="M57,97.9,69.9,82.1A40.1,40.1,0,0,0,57,97.9Z" fill="#2b5c86"/><path d="M67.7,101.5,79.6,86.9S72.7,90.8,67.7,101.5Z" fill="#2b5c86"/><path d="M53.8,69.8l5.3,4.1s1.2-2.3.5-3.8S56.3,66.7,53.8,69.8Z" fill="#428bca"/><path d="M61.4,78.3l5.3,4.1s1.2-2.3.5-3.8S63.9,75.2,61.4,78.3Z" fill="#428bca"/><path d="M70.3,84.4l5.3,4.1s1.2-2.3.5-3.8S72.9,81.3,70.3,84.4Z" fill="#428bca"/><path d="M81,88l5.3,4.1s1.2-2.3.5-3.8S83.5,85,81,88Z" fill="#428bca"/><path d="M136.6,19.7s8.7,25.8-.8,50.2L155,61.2V11.6Z" fill="#cfe2f2"/><path d="M50.1,38.1s.7,9.7-.4,13.9S44,66.8,44,66.8l-2.8,5.5s12-8.2,16.6-15.5,7.6-16.9,6.8-16.3Z" fill="#cfe2f2"/><path d="M74.5,65.4s4.8.3,6.1-1.3.9-8.5.9-8.5l9.7-.2L89,54.2,75.5,52.6,76,62A11.6,11.6,0,0,1,74.5,65.4Z" fill="#cfe2f2"/><path d="M14.7,16.1s24.7,25.8,6.8,56.1l11.8,5S39.5,65.4,40.6,63a90.6,90.6,0,0,0,4.5-13.6c1.3-5.1-.3-17.7-.3-17.7L44,29Z" fill="#3876ac" fill-rule="evenodd"/><path d="M88.2,86.5a5.4,5.4,0,0,1,.1,6.8h0l-.5.6-2.1,2.6-4.6,5.7,3.9,2.5a5.4,5.4,0,0,0,7.4-1.7l.3-.5a5.4,5.4,0,0,0,.2-5.3L95.8,99a5.4,5.4,0,0,0,7.4-1.7l.3-.5a5.4,5.4,0,0,0-1.2-7,5.4,5.4,0,0,0,5.4-2.5l.3-.5a5.4,5.4,0,0,0-.1-5.8,5.8,5.8,0,0,0,6.5-2.5l.3-.5a5.8,5.8,0,0,0-.9-7.2l-.9-.7-4.9-3.3-9-6.1" fill="none" stroke="#2b5c86" stroke-linecap="round" stroke-miterlimit="10"/><path d="M75.5,52.4l.5,9.3a4.7,4.7,0,0,1-4.4,4.9H69.7a4.7,4.7,0,0,1-4.9-4.4l-.6-9.4v-2a4.5,4.5,0,0,1,0-.6,4.6,4.6,0,0,1,2.3-4.2l6-3.8-5-1h0L50.1,38c.1.7.1,1.4.2,2.3a66.5,66.5,0,0,1-.2,8.1c-.7,8.6-6.2,19.1-8.8,23.4l-.5.8a13,13,0,0,0,2.7,5.8l8.4-10.4.8-.8a6,6,0,0,1,7.6-.2l.5.4a5.9,5.9,0,0,1,1.7,7.1,5.4,5.4,0,0,1,5,.9l.5.4a5.4,5.4,0,0,1,1.8,5.8,5.4,5.4,0,0,1,6.8,0h.2l.3.2a5.4,5.4,0,0,1,2,4.9l.6-.7a5.4,5.4,0,0,1,7.6-.8l.5.4.7.7" fill="none" stroke="#2b5c86" stroke-linecap="round" stroke-miterlimit="10"/><polyline points="87.8 94 88.3 93.4 88.4 93.4" fill="none" stroke="#2b5c86" stroke-linecap="round" stroke-miterlimit="10"/><path d="M88.4,93.4a5.4,5.4,0,0,0-.1-6.8l-.7-.7-.5-.4a5.4,5.4,0,0,0-7.6.8l-.6.7a5.4,5.4,0,0,0-2-4.9l-.3-.2h-.2a5.4,5.4,0,0,0-6.8,0,5.4,5.4,0,0,0-1.8-5.8l-.5-.4a5.4,5.4,0,0,0-5-.9,5.9,5.9,0,0,0-1.7-7.1l-.5-.4a6,6,0,0,0-7.6.2l-.8.8L43.5,78.5l-2,2.5a5.9,5.9,0,0,0,.9,8.3l.5.4a6,6,0,0,0,5.5,1,5.4,5.4,0,0,0,1.2,7l.5.4a5.4,5.4,0,0,0,5.9.5,5.4,5.4,0,0,0,1.2,7l.5.4a5.4,5.4,0,0,0,7.6-.8l2-2.5a5.4,5.4,0,0,0,2,4.9l.5.4a5.4,5.4,0,0,0,7.6-.8l3.9-4.9,4.6-5.7L87.8,94" fill="none" stroke="#2b5c86" stroke-linecap="round" stroke-miterlimit="10"/><path d="M64.2,52.9l.6,9.4a4.7,4.7,0,0,0,4.9,4.4h1.9A4.7,4.7,0,0,0,76,61.7l-.5-9.3,14,1.8L99,60.5l9,6.1,4.9,3.3.9.7,2.5-1c-2.3-4.1-7.5-13.8-8.2-21.9a55.5,55.5,0,0,1,0-9.8l-6.3,2.8-7.1.3c-7.4-.9-18.5-1.1-20.8.2l-1.5,1-6,3.8a4.6,4.6,0,0,0-2.3,4.2" fill="none" stroke="#2b5c86" stroke-linecap="round" stroke-miterlimit="10"/><path d="M41.3,71.8C43.8,67.5,49.3,57,50,48.4a66.5,66.5,0,0,0,.2-8.1c0-.8-.1-1.6-.2-2.3a18,18,0,0,0-1-4.9l-4.6-2a37.6,37.6,0,0,1,.7,6c.1,1.3.1,2.7.1,4.3s-.1,3.6-.3,5.7a45.1,45.1,0,0,1-2.4,10.7,91,91,0,0,1-4.7,11.1l-1.7,3.3,3.9,1.7.7-1.2" fill="none" stroke="#2b5c86" stroke-linecap="round" stroke-miterlimit="10"/><path d="M0,62.8,33.3,77.2s1.2-2,2.9-5l1.7-3.3a91,91,0,0,0,4.7-11.1,45.1,45.1,0,0,0,2.4-10.7c.2-2.1.3-4,.3-5.7s0-3-.1-4.3a37.6,37.6,0,0,0-.7-6A12.1,12.1,0,0,0,44,29L0,9.7" fill="none" stroke="#2b5c86" stroke-linecap="round" stroke-miterlimit="10"/><path d="M120.2,68.2c-3-5.7-6.7-14.3-7.3-21.6a68.7,68.7,0,0,1-.1-10.6,32.5,32.5,0,0,1,.6-4.4L109,33.4a16.7,16.7,0,0,0-.9,4.5,55.5,55.5,0,0,0,0,9.8c.7,8.1,5.8,17.9,8.2,21.9l1.1,1.9,3.6-1.6Z" fill="none" stroke="#2b5c86" stroke-linecap="round" stroke-miterlimit="10"/><path d="M155,11.6l-41.1,18a11.3,11.3,0,0,0-.6,1.9,32.5,32.5,0,0,0-.6,4.4,68.7,68.7,0,0,0,.1,10.6c.6,7.3,4.4,15.9,7.3,21.6l1,1.8c1.6,2.9,2.7,4.7,2.7,4.7L155,61.2m-28.2,9.5a2.9,2.9,0,1,1,2.9-2.9A2.9,2.9,0,0,1,126.8,70.7Z" fill="none" stroke="#2b5c86" stroke-linecap="round" stroke-miterlimit="10"/></g></svg>