<svg id="Layer_1" data-name="Layer 1" xmlns="http://www.w3.org/2000/svg" viewBox="0 0 155 119"><title>woorank help icons</title><path d="M47.9,36.8A21,21,0,0,0,49,29.3l4.8-1.2-2.2-8.6-4.8,1.2a21,21,0,0,0-4.5-6.1l2.5-4.2L37.1,5.8l-2.5,4.2A21,21,0,0,0,27.1,9L25.8,4.2,17.2,6.4l1.2,4.8a21,21,0,0,0-6.1,4.5L8.1,13.2,3.6,20.9l4.2,2.5a21,21,0,0,0-1.1,7.5L2,32.1l2.2,8.6L9,39.5a21,21,0,0,0,4.5,6.1L11,49.8l7.6,4.5,2.5-4.2a21,21,0,0,0,7.5,1.1l1.2,4.8,8.6-2.2L37.3,49a21,21,0,0,0,6.1-4.5l4.2,2.5,4.5-7.6Zm-21.1-.7a6.1,6.1,0,1,1,7.1-5A6.1,6.1,0,0,1,26.8,36.1Z" fill="#ccd1d9"/><path d="M26.5,6.8l-.7-2.6L17.2,6.4l1.2,4.8a21,21,0,0,0-6.1,4.5L8.1,13.2,3.6,20.9l4.2,2.5a21,21,0,0,0-1.1,7.5L2,32.1l2.2,8.6L9,39.5a21,21,0,0,0,4.5,6.1L11,49.8l7.6,4.5,2.5-4.2,3,.7C11,33.5,19.4,16.3,26.5,6.8Z" fill="#aab2bd"/><path d="M52.1,39.3l-4.2-2.5A21,21,0,0,0,49,29.3l4.8-1.2-2.2-8.6-4.8,1.2a21,21,0,0,0-4.5-6.1l2.5-4.2L37.1,5.8l-2.5,4.2A21,21,0,0,0,27.1,9L25.8,4.2,17.2,6.4l1.2,4.8a21,21,0,0,0-6.1,4.5L8.1,13.2,3.6,20.9l4.2,2.5a21,21,0,0,0-1.1,7.5L2,32.1l2.2,8.6L9,39.5a21,21,0,0,0,4.5,6.1L11,49.8l7.6,4.5,2.5-4.2a21,21,0,0,0,7.5,1.1l1.2,4.8,8.6-2.2L37.3,49a21,21,0,0,0,6.1-4.5l4.2,2.5Z" fill="none" stroke="#353b48" stroke-miterlimit="10"/><path d="M26.8,36.1a6.1,6.1,0,1,1,7.1-5A6.1,6.1,0,0,1,26.8,36.1Z" fill="none" stroke="#353b48" stroke-miterlimit="10"/><path d="M78.1,73.7A21,21,0,0,0,75.3,61l4.2-2.9-1.9-2.7-4.2,2.9a21,21,0,0,0-11-7h.2c-1.7,1.1-4.1,1.5-6.5,3.8a17.2,17.2,0,0,1,3.3.6c8.5,1.5,15,10.8,13.5,19.3S62.2,89,53.7,87.5a15.5,15.5,0,0,1-3.9-1.3,39,39,0,0,0,5.1,7.3l.2-.9a21,21,0,0,0,12.7-2.8L70.7,94l2.7-1.9L70.5,88a21,21,0,0,0,7-11l5,.9.6-3.3Z" fill="#ccd1d9"/><path d="M49.8,86.2a15.6,15.6,0,0,1-8.7-16.8c1.3-7.4,8.8-13.9,16-14.1,2.6-1.8,3.7-2.9,5.4-4h-.2l.9-5L60,45.7l-.9,5a21,21,0,0,0-12.7,2.8l-2.9-4.2-2.7,1.9,2.9,4.2a21,21,0,0,0-7,11l-5-.9-.6,3.3,5,.9a21,21,0,0,0,2.8,12.7l-4.2,2.9L36.6,88l4.2-2.9a21,21,0,0,0,11,7l-.9,5,3.3.6.7-4.2A39,39,0,0,1,49.8,86.2Z" fill="#aab2bd"/><path d="M78.1,73.7A21,21,0,0,0,75.3,61l4.2-2.9-1.9-2.7-4.2,2.9a21,21,0,0,0-11-7l.9-5L60,45.7l-.9,5a21,21,0,0,0-12.7,2.8l-2.9-4.2-2.7,1.9,2.9,4.2a21,21,0,0,0-7,11l-5-.9-.6,3.3,5,.9a21,21,0,0,0,2.8,12.7l-4.2,2.9L36.6,88l4.2-2.9a21,21,0,0,0,11,7l-.9,5,3.3.6.7-4.2.2-.9a21,21,0,0,0,12.7-2.8L70.7,94l2.7-1.9L70.5,88a21,21,0,0,0,7-11l5,.9.6-3.3Z" fill="none" stroke="#353b48" stroke-miterlimit="10"/><path d="M54.3,87.6A16.1,16.1,0,1,1,72.9,74.5,16.1,16.1,0,0,1,54.3,87.6Z" fill="none" stroke="#353b48" stroke-miterlimit="10"/><path d="M147.4,49.2l.6-4.4-7.2-1a29.9,29.9,0,0,0-.2-6.4l7.1-1.6-1-4.3-7.1,1.6a30,30,0,0,0-3.4-7.4l5.9-4.4-2.7-3.6L133.5,22a30.1,30.1,0,0,0-4.7-4.4l3.9-6.2L128.9,9,125,15.2a29.9,29.9,0,0,0-7.7-2.8l1-7.2L114,4.5l-1,7.2a29.9,29.9,0,0,0-6.4.2l-1.6-7.1-4.3,1,1.6,7.1a30,30,0,0,0-7.4,3.4l-4.4-5.9-3.6,2.7,4.4,5.9a30.1,30.1,0,0,0-4.4,4.7l-6.2-3.9-2.4,3.8,6.2,3.9a29.9,29.9,0,0,0-2.8,7.7l-7.2-1-.6,4.4,7.2,1a29.9,29.9,0,0,0,.2,6.4l-7.1,1.6,1,4.3,7.1-1.6a30,30,0,0,0,3.4,7.4l-5.9,4.4,2.7,3.6,5.9-4.4A30.1,30.1,0,0,0,93,65.8L89.1,72l3.8,2.4,3.9-6.2a29.9,29.9,0,0,0,7.7,2.8l-1,7.2,4.4.6,1-7.2a29.9,29.9,0,0,0,6.4-.2l1.6,7.1,4.3-1-1.6-7.1A30,30,0,0,0,127,67l4.4,5.9,3.6-2.7-4.4-5.9a30.1,30.1,0,0,0,4.4-4.7l6.2,3.9,2.4-3.8-6.2-3.9a29.9,29.9,0,0,0,2.8-7.7Zm-38.7,4a11.1,11.1,0,1,1,12.6-9.4A11.1,11.1,0,0,1,108.7,53.2Z" fill="#ccd1d9"/><path d="M117.3,12.2l1-7L114,4.5l-1,7.2a29.9,29.9,0,0,0-6.4.2l-1.6-7.1-4.3,1,1.6,7.1a30,30,0,0,0-7.4,3.4l-4.4-5.9-3.6,2.7,4.4,5.9a30.1,30.1,0,0,0-4.4,4.7l-6.2-3.9-2.4,3.8,6.2,3.9a29.9,29.9,0,0,0-2.8,7.7l-7.2-1-.6,4.4,7.2,1a29.9,29.9,0,0,0,.2,6.4l-7.1,1.6,1,4.3,7.1-1.6a30,30,0,0,0,3.4,7.4l-5.9,4.4,2.7,3.6,5.9-4.4A30.1,30.1,0,0,0,93,65.8L89.1,72l3.8,2.4,3.9-6.2a29.9,29.9,0,0,0,7.7,2.8l-1,7.2,4.4.6,1-7.2h.4C77.9,38.5,106,18.4,117.3,12.2Z" fill="#aab2bd"/><path d="M147.4,49.2l.6-4.4-7.2-1a29.9,29.9,0,0,0-.2-6.4l7.1-1.6-1-4.3-7.1,1.6a30,30,0,0,0-3.4-7.4l5.9-4.4-2.7-3.6L133.5,22a30.1,30.1,0,0,0-4.7-4.4l3.9-6.2L128.9,9,125,15.2a29.9,29.9,0,0,0-7.7-2.8l1-7.2L114,4.5l-1,7.2a29.9,29.9,0,0,0-6.4.2l-1.6-7.1-4.3,1,1.6,7.1a30,30,0,0,0-7.4,3.4l-4.4-5.9-3.6,2.7,4.4,5.9a30.1,30.1,0,0,0-4.4,4.7l-6.2-3.9-2.4,3.8,6.2,3.9a29.9,29.9,0,0,0-2.8,7.7l-7.2-1-.6,4.4,7.2,1a29.9,29.9,0,0,0,.2,6.4l-7.1,1.6,1,4.3,7.1-1.6a30,30,0,0,0,3.4,7.4l-5.9,4.4,2.7,3.6,5.9-4.4A30.1,30.1,0,0,0,93,65.8L89.1,72l3.8,2.4,3.9-6.2a29.9,29.9,0,0,0,7.7,2.8l-1,7.2,4.4.6,1-7.2a29.9,29.9,0,0,0,6.4-.2l1.6,7.1,4.3-1-1.6-7.1A30,30,0,0,0,127,67l4.4,5.9,3.6-2.7-4.4-5.9a30.1,30.1,0,0,0,4.4-4.7l6.2,3.9,2.4-3.8-6.2-3.9a29.9,29.9,0,0,0,2.8-7.7Z" fill="none" stroke="#353b48" stroke-miterlimit="10"/><path d="M108.7,53.2a11.1,11.1,0,1,1,12.6-9.4A11.1,11.1,0,0,1,108.7,53.2Z" fill="none" stroke="#353b48" stroke-miterlimit="10"/><path d="M149.6,100.2a15.9,15.9,0,0,0,.2-5.7l3.5-1.3L151,86.8l-3.5,1.3a15.9,15.9,0,0,0-3.9-4.2l1.6-3.4L139,77.7l-1.6,3.4a15.9,15.9,0,0,0-5.7-.2l-1.3-3.5-6.3,2.3,1.3,3.5a15.9,15.9,0,0,0-4.2,3.9l-3.4-1.6L115,91.7l3.4,1.6a15.9,15.9,0,0,0-.2,5.7l-3.5,1.3,2.3,6.3,3.5-1.3a15.9,15.9,0,0,0,3.9,4.2l-1.6,3.4,6.1,2.8,1.6-3.4a15.9,15.9,0,0,0,5.7.2l1.3,3.5,6.3-2.3-1.3-3.5a15.9,15.9,0,0,0,4.2-3.9l3.4,1.6,2.8-6.1Zm-16,1.2a4.6,4.6,0,1,1,5-4.3A4.6,4.6,0,0,1,133.7,101.4Z" fill="#ccd1d9"/><path d="M131.1,79.2l-.7-1.9-6.3,2.3,1.3,3.5a15.9,15.9,0,0,0-4.2,3.9l-3.4-1.6L115,91.7l3.4,1.6a15.9,15.9,0,0,0-.2,5.7l-3.5,1.3,2.3,6.3,3.5-1.3a15.9,15.9,0,0,0,3.9,4.2l-1.6,3.4,6.1,2.8,1.6-3.4,2.3.3C121.6,100.6,126.6,87,131.1,79.2Z" fill="#aab2bd"/><path d="M153,101.8l-3.4-1.6a15.9,15.9,0,0,0,.2-5.7l3.5-1.3L151,86.8l-3.5,1.3a15.9,15.9,0,0,0-3.9-4.2l1.6-3.4L139,77.7l-1.6,3.4a15.9,15.9,0,0,0-5.7-.2l-1.3-3.5-6.3,2.3,1.3,3.5a15.9,15.9,0,0,0-4.2,3.9l-3.4-1.6L115,91.7l3.4,1.6a15.9,15.9,0,0,0-.2,5.7l-3.5,1.3,2.3,6.3,3.5-1.3a15.9,15.9,0,0,0,3.9,4.2l-1.6,3.4,6.1,2.8,1.6-3.4a15.9,15.9,0,0,0,5.7.2l1.3,3.5,6.3-2.3-1.3-3.5a15.9,15.9,0,0,0,4.2-3.9l3.4,1.6Z" fill="none" stroke="#353b48" stroke-miterlimit="10"/><path d="M133.7,101.4a4.6,4.6,0,1,1,5-4.3A4.6,4.6,0,0,1,133.7,101.4Z" fill="none" stroke="#353b48" stroke-miterlimit="10"/><circle cx="56.4" cy="72.1" r="5" transform="translate(-24.4 115.2) rotate(-80)" fill="#aab2bd" stroke="#353b48" stroke-miterlimit="10" stroke-width="1.11"/></svg>