<?xml version="1.0" encoding="UTF-8"?><svg id="Layer_1" xmlns="http://www.w3.org/2000/svg" viewBox="0 0 80 80"><path d="M52.5,30.63c1.72,0,3.12,1.41,3.12,3.13s-1.41,3.12-3.13,3.12h-3.12s-3.12,0-3.12,0c-1.72,0-3.12-1.41-3.12-3.13,0-1.72,1.41-3.12,3.13-3.12h3.12s3.12,0,3.12,0Z" fill="#a6cef5"/><path d="M33.75,43.12c1.72,0,3.12,1.41,3.12,3.13s-1.41,3.12-3.13,3.12h-3.12s-3.12,0-3.12,0c-1.72,0-3.12-1.41-3.12-3.13s1.41-3.12,3.13-3.12h3.12s3.12,0,3.12,0Z" fill="#e8f3fd"/><path d="M21.25,63.44H58.75c2.59,0,4.68-2.1,4.69-4.69V21.24c0-2.59-2.1-4.68-4.69-4.68H21.25c-2.59,0-4.68,2.09-4.69,4.68V58.74c0,2.59,2.1,4.69,4.69,4.69Zm-1.56-42.19c0-.85,.71-1.56,1.56-1.56H58.75c.85,0,1.56,.71,1.56,1.56V58.74c0,.85-.71,1.57-1.56,1.57H21.25c-.85,0-1.56-.72-1.56-1.57V21.24Z" fill="#2286e6"/><path d="M27.5,50.94h1.56v4.68c0,.86,.7,1.56,1.56,1.56s1.56-.7,1.56-1.56v-4.68h1.56c2.59,0,4.68-2.1,4.69-4.69,0-2.59-2.1-4.69-4.69-4.69h-1.56V24.37c0-.86-.7-1.56-1.56-1.56s-1.56,.7-1.56,1.56v17.19h-1.56c-2.59,0-4.68,2.1-4.69,4.69,0,2.59,2.1,4.69,4.69,4.69Zm0-6.25h3.12s3.12,0,3.12,0c.85,0,1.56,.71,1.56,1.56,0,.85-.71,1.56-1.56,1.56h-3.12s-3.12,0-3.12,0c-.85,0-1.56-.71-1.56-1.56,0-.85,.71-1.56,1.56-1.56Z" fill="#2286e6"/><path d="M46.25,38.44h1.56v17.18c0,.86,.7,1.56,1.56,1.56s1.56-.7,1.56-1.56v-17.18h1.56c2.59,0,4.68-2.1,4.69-4.69,0-2.59-2.1-4.69-4.69-4.69h-1.56v-4.69c0-.86-.7-1.56-1.56-1.56s-1.56,.7-1.56,1.56v4.69h-1.56c-2.59,0-4.68,2.1-4.69,4.69,0,2.59,2.1,4.69,4.69,4.69Zm0-6.25h3.12s3.13,0,3.13,0c.85,0,1.56,.71,1.56,1.56,0,.85-.71,1.56-1.56,1.56h-3.12s-3.13,0-3.13,0c-.85,0-1.56-.71-1.56-1.56,0-.85,.71-1.56,1.56-1.56Z" fill="#2286e6"/></svg>