<svg id="Layer_1" data-name="Layer 1" xmlns="http://www.w3.org/2000/svg" viewBox="0 0 155 119"><title>woorank help icons</title><polygon points="59 56.3 94.9 56.3 76.9 65.8 59 56.3" fill="#5f486b"/><path d="M80.8,61.3c-3.5,3.1-18.4,16.3-17.3,55.5H128C128,80.3,107.2,62.6,80.8,61.3Z" fill="#f3f0f5"/><path d="M80.8,61.3H77.7C49.8,61.2,27.3,75.1,27,117H63.5C63.5,79.9,77.3,64.4,80.8,61.3Z" fill="#c4b3cc"/><path d="M79.4,5.9H77.5A26.6,26.6,0,0,0,76.4,59C69.4,47.1,57.5,32,79.4,5.9Z" fill="#c4b3cc"/><path d="M79.4,5.9c-21.8,25-10,45.5-2.9,53.1h1.1A26.6,26.6,0,0,0,79.4,5.9Z" fill="#f3f0f5"/><path d="M80.8,61.3H77.7C49.8,61.2,27.3,75.1,27,117H128C128,80.3,107.2,62.6,80.8,61.3Z" fill="none" stroke="#5f486b" stroke-miterlimit="10"/><path d="M76.4,59h1.1A26.6,26.6,0,0,0,79.4,5.9H77.5A26.6,26.6,0,0,0,76.4,59Z" fill="none" stroke="#5f486b" stroke-miterlimit="10"/><polygon points="59.6 62.5 59.6 56.9 76.9 61.5 76.9 68.5 59.6 62.5" fill="#c4b3cc" stroke="#5f486b" stroke-miterlimit="10"/><polygon points="94.9 62.5 94.9 56.9 77.5 61.5 77.5 68.5 94.9 62.5" fill="#c4b3cc" stroke="#5f486b" stroke-miterlimit="10"/><path d="M83.1,84.6,78.5,70.9a4,4,0,0,0,2.3-3.8c0-2.2-1.5-4-3.4-4s-3.4,1.8-3.4,4a4,4,0,0,0,2.3,3.8L71.9,84.6l4.8,32h1.1l5.3-31.9h0Z" fill="#fff" stroke="#5f486b" stroke-miterlimit="10"/><path d="M52.5,28.6s-2.2-5.4-6.5-3.2,1.1,15.1,6.5,10.8" fill="#c4b3cc"/><path d="M52.5,28.6s-2.2-5.4-6.5-3.2,1.1,15.1,6.5,10.8" fill="none" stroke="#5f486b" stroke-miterlimit="10"/><path d="M102.7,30.8s2.2-5.4,6.5-3.2-1.1,15.1-6.5,10.8" fill="#f3f0f5"/><path d="M102.7,30.8s2.2-5.4,6.5-3.2-1.1,15.1-6.5,10.8" fill="none" stroke="#5f486b" stroke-miterlimit="10"/><path d="M86.5,5.4S91.9,4.3,94,7.6a11.9,11.9,0,0,1,2.2,6A27.9,27.9,0,0,0,91,9.7a20.7,20.7,0,0,0-5.6-2.6Z" fill="#c4b3cc"/><path d="M86.5,5.4s4.8-.6,7.6,2.2,2.2,6,2.2,6A27.9,27.9,0,0,0,91,9.7a20.7,20.7,0,0,0-5.6-2.6Z" fill="none" stroke="#5f486b" stroke-miterlimit="10"/><path d="M87,6s-7.6,4.3-10.8,7.6a63.9,63.9,0,0,0-5.9,7L73,12.4s-.3-1-3.6,1.2A54.3,54.3,0,0,0,62.2,20l.5-5.9a55.7,55.7,0,0,0-9.2,7S54,11,61.1,6,82.7,1.6,87,6Z" fill="#9476a3"/><path d="M87.5,5.4s-8.1,4.9-11.3,8.1a63.9,63.9,0,0,0-5.9,7L73,12.4a24.8,24.8,0,0,0-5.2,2.8A34.5,34.5,0,0,0,62.2,20l.5-5.9a55.7,55.7,0,0,0-9.2,7S54,11,61.1,6,77.8,1.1,87.5,5.4Z" fill="none" stroke="#5f486b" stroke-miterlimit="10"/><line x1="37" y1="98.9" x2="37" y2="117" fill="none" stroke="#5f486b" stroke-linecap="round" stroke-miterlimit="10"/><line x1="115.8" y1="98.9" x2="115.8" y2="117" fill="none" stroke="#5f486b" stroke-linecap="round" stroke-miterlimit="10"/><rect x="90.5" y="84.3" width="16.2" height="3.24" fill="none" stroke="#5f486b" stroke-linecap="round" stroke-miterlimit="10"/></svg>