<svg id="Layer_1" data-name="Layer 1" xmlns="http://www.w3.org/2000/svg" viewBox="0 0 80 80"><defs><style>.cls-1{fill:#ffdc99;}.cls-2{fill:#2286e6;}.cls-3{fill:none;stroke:#ffc14c;stroke-linecap:round;stroke-linejoin:round;stroke-width:3.5px;}</style></defs><path class="cls-1" d="M69.46,57.68V61.6a3.94,3.94,0,0,1-3.92,3.94H14.46a3.94,3.94,0,0,1-3.92-3.94V57.68H69.46Z"/><path class="cls-2" d="M69.46,55.71h-2V18.39a5.89,5.89,0,0,0-5.89-5.89H18.39a5.89,5.89,0,0,0-5.89,5.89V55.71h-2a2,2,0,0,0-1.39.58,1.93,1.93,0,0,0-.58,1.38V61.6a5.91,5.91,0,0,0,5.89,5.9H65.54a5.91,5.91,0,0,0,5.89-5.9V57.67a1.93,1.93,0,0,0-.58-1.38A2,2,0,0,0,69.46,55.71Zm-53-37.32a2,2,0,0,1,2-2H61.61a2,2,0,0,1,2,2V55.71H16.43ZM67.5,61.6a2,2,0,0,1-2,2H14.46a2,2,0,0,1-2-2v-2h55Z"/><path class="cls-1" d="M40,37.92h0A11.35,11.35,0,0,0,28.64,49.27H51.36A11.42,11.42,0,0,0,40,37.92Z"/><path class="cls-3" d="M40,37.92h0A11.35,11.35,0,0,0,28.64,49.27H51.36A11.42,11.42,0,0,0,40,37.92Z"/><path class="cls-1" d="M40,36.07a5.67,5.67,0,1,0-5.67-5.67A5.67,5.67,0,0,0,40,36.07Z"/><path class="cls-3" d="M40,36.07a5.67,5.67,0,1,0-5.67-5.67A5.67,5.67,0,0,0,40,36.07Z"/></svg>