<svg id="Layer_1" data-name="Layer 1" xmlns="http://www.w3.org/2000/svg" viewBox="0 0 155 119"><title>woorank help icons</title><path d="M77.5,8.3c-31.3,0-56.7,19.8-56.7,44.1,0,14.9,9.5,28.1,24.1,36.1L33.4,110.7,60,94.5a71.7,71.7,0,0,0,17.5,2.1c31.3,0,56.8-19.8,56.8-44.1S108.8,8.3,77.5,8.3Z" fill="#d1f5e0" fill-rule="evenodd"/><path d="M70.2,8.3C42.3,11.1,20.8,29.7,20.8,52.1c0,14.9,9.5,28.1,24.1,36.1L33.4,110.3,60,94.1a71.4,71.4,0,0,0,15.4,2.1C22.3,57.5,53,22.5,70.2,8.3Z" fill="#7ee2a8"/><path d="M77.5,8.3c-31.3,0-56.7,19.8-56.7,44.1,0,14.9,9.5,28.1,24.1,36.1L33.4,110.7,60,94.5a71.7,71.7,0,0,0,17.5,2.1c31.3,0,56.8-19.8,56.8-44.1S108.8,8.3,77.5,8.3Z" fill="none" stroke="#27ae60" stroke-miterlimit="10" fill-rule="evenodd"/><path d="M65.3,36.5l2.4-1.8a17,17,0,0,1,2.8-1.5,17.3,17.3,0,0,1,3.2-1,18.4,18.4,0,0,1,3.8-.4,15.7,15.7,0,0,1,5,.8,11.3,11.3,0,0,1,3.9,2.2,9.7,9.7,0,0,1,2.5,3.4,10.9,10.9,0,0,1,.9,4.5,11.3,11.3,0,0,1-.7,4.2,11.7,11.7,0,0,1-1.7,3.1A13.2,13.2,0,0,1,85,52.1l-2.4,1.8-1.9,1.6a3.2,3.2,0,0,0-1,1.8L79,62H73.6l-.5-5.2a4.2,4.2,0,0,1,.4-2.6,8,8,0,0,1,1.6-2.1l2.3-1.8,2.4-1.9a10,10,0,0,0,1.9-2.3,6,6,0,0,0,.7-3.1,4.7,4.7,0,0,0-.4-2,4.7,4.7,0,0,0-1.2-1.6,5.4,5.4,0,0,0-1.8-1,7.3,7.3,0,0,0-2.3-.3,10.3,10.3,0,0,0-3.1.4l-2.1.9-1.5.9a2,2,0,0,1-1.1.4,1.7,1.7,0,0,1-1.6-1Zm6,37.4a4.9,4.9,0,0,1,.4-1.9,4.6,4.6,0,0,1,1-1.5,4.8,4.8,0,0,1,1.5-1,4.8,4.8,0,0,1,1.9-.4,4.6,4.6,0,0,1,1.9.4,5.1,5.1,0,0,1,1.5,1,4.8,4.8,0,0,1,1,5.3,4.7,4.7,0,0,1-1,1.5,4.8,4.8,0,0,1-3.4,1.4,5,5,0,0,1-1.9-.4,4.6,4.6,0,0,1-1.5-1,4.7,4.7,0,0,1-1-1.5A4.8,4.8,0,0,1,71.3,73.9Z" fill="#27ae60"/><line x1="34" y1="46" x2="54" y2="46" fill="none" stroke="#d1f5e0" stroke-linecap="round" stroke-miterlimit="10" stroke-width="2"/><line x1="32" y1="52" x2="52" y2="52" fill="none" stroke="#d1f5e0" stroke-linecap="round" stroke-miterlimit="10" stroke-width="2"/><line x1="34" y1="58" x2="54" y2="58" fill="none" stroke="#d1f5e0" stroke-linecap="round" stroke-miterlimit="10" stroke-width="2"/></svg>