<?xml version="1.0" encoding="UTF-8"?><svg id="Layer_1" xmlns="http://www.w3.org/2000/svg" viewBox="0 0 80 80"><path d="M63.2,15H16.8c-2.97,0-5.37,2.41-5.37,5.37v28.61c0,2.97,2.41,5.37,5.37,5.37h8.94v8.89c.02,.98,.83,1.77,1.81,1.75,.47,0,.91-.2,1.24-.53l10.21-10.21h24.2c2.97,0,5.37-2.41,5.37-5.37h0V20.37c0-2.97-2.41-5.37-5.37-5.37h0Zm1.8,33.98c0,.99-.8,1.8-1.8,1.8h-24.98c-.46,.01-.9,.2-1.22,.53l-7.68,7.68v-6.42c0-.98-.8-1.78-1.78-1.78h-10.73c-.99,0-1.8-.8-1.8-1.8h0V20.37c0-.99,.8-1.8,1.8-1.8H63.2c.99,0,1.8,.8,1.8,1.8h0v28.61Z" fill="#2286e6"/><path d="M56.09,25.73H23.91c-.99-.08-1.86,.65-1.94,1.64-.08,.99,.65,1.86,1.64,1.94,.1,0,.2,0,.3,0H56.09c.99,.08,1.86-.65,1.94-1.64s-.65-1.86-1.64-1.94c-.1,0-.2,0-.3,0Z" fill="#ffc14c"/><path d="M56.09,32.89H23.91c-.99-.08-1.86,.65-1.94,1.64-.08,.99,.65,1.86,1.64,1.94,.1,0,.2,0,.3,0H56.09c.99,.08,1.86-.65,1.94-1.64s-.65-1.86-1.64-1.94c-.1,0-.2,0-.3,0Z" fill="#ffc14c"/><path d="M40,40.05H23.91c-.99-.08-1.86,.65-1.94,1.64-.08,.99,.65,1.86,1.64,1.94,.1,0,.2,0,.3,0h16.09c.99-.08,1.72-.95,1.64-1.94-.07-.87-.77-1.57-1.64-1.64Z" fill="#ffdc99"/></svg>