<svg id="Layer_1" data-name="Layer 1" xmlns="http://www.w3.org/2000/svg" viewBox="0 0 155 119"><title>woorank help icons</title><circle cx="67.8" cy="59.9" r="45.3" fill="#fff"/><path d="M63,1.4C31.6,1.4,4.8,28.2,4.8,59.5S31.6,117.6,63,117.6c47.9,0,87.2-58.1,87.2-58.1S110.9,1.4,63,1.4ZM94.3,50.1l-29.1,29-5.1,5.1-5.1-5.1L40.4,64.6A7.3,7.3,0,1,1,50.7,54.4l9.5,9.5L84,39.8A7.3,7.3,0,0,1,94.3,50.1Z" fill="#428bca" fill-rule="evenodd"/><path d="M46.2,4C22.6,11.5,4.8,34,4.8,59.5S24,109.3,49,115.8C17.9,69.9,34.5,25.4,46.2,4Z" fill="#3876ac"/><path d="M63,1.4C31.6,1.4,4.8,28.2,4.8,59.5S31.6,117.6,63,117.6c47.9,0,87.2-58.1,87.2-58.1S110.9,1.4,63,1.4ZM94.3,50.1l-29.1,29-5.1,5.1-5.1-5.1L40.4,64.6A7.3,7.3,0,1,1,50.7,54.4l9.5,9.5L84,39.8A7.3,7.3,0,0,1,94.3,50.1Z" fill="none" stroke="#2b5c86" stroke-miterlimit="10" fill-rule="evenodd"/></svg>