<?xml version="1.0" encoding="UTF-8"?><svg id="Layer_1" xmlns="http://www.w3.org/2000/svg" viewBox="0 0 80 80"><path d="M69.46,55.71h-1.96V18.39c0-3.25-2.64-5.89-5.89-5.89H18.39c-3.25,0-5.89,2.63-5.89,5.89V55.71h-1.96c-.52,0-1.02,.21-1.39,.57-.37,.37-.58,.87-.58,1.39v3.93c0,3.25,2.64,5.9,5.89,5.9h51.07c3.25,0,5.89-2.65,5.89-5.9v-3.93c0-.52-.21-1.02-.58-1.39s-.87-.57-1.39-.57ZM16.43,18.39c0-1.07,.9-1.96,1.96-1.96H61.61c1.07,0,1.96,.89,1.96,1.96V55.71H16.43V18.39Zm51.07,43.21c0,1.07-.9,1.97-1.96,1.97H14.46c-1.07,0-1.96-.9-1.96-1.97v-1.96h55v1.96Z" fill="#2286e6"/><g><path d="M40.01,37.92h-.02c-3.01,0-5.9,1.19-8.03,3.32-2.13,2.13-3.32,5.02-3.32,8.03h22.71c-.03-6.25-5.09-11.32-11.35-11.35Z" fill="#e5f9e8"/><path d="M40,36.07c3.13,0,5.67-2.54,5.67-5.67s-2.54-5.67-5.67-5.67-5.67,2.54-5.67,5.67,2.54,5.67,5.67,5.67Z" fill="#e5f9e8"/><path d="M43.8,36.76c2.16-1.3,3.62-3.66,3.62-6.36,0-4.09-3.33-7.42-7.42-7.42s-7.42,3.33-7.42,7.42c0,2.69,1.44,5.04,3.58,6.34-2.03,.62-3.89,1.73-5.44,3.27-2.44,2.44-3.84,5.82-3.83,9.27,0,.97,.79,1.75,1.75,1.75h22.71c.47,0,.91-.19,1.24-.52s.51-.78,.51-1.24c-.03-5.87-3.95-10.85-9.3-12.51Zm-3.8-10.28c2.16,0,3.92,1.76,3.92,3.92s-1.76,3.92-3.92,3.92-3.92-1.76-3.92-3.92,1.76-3.92,3.92-3.92Zm-9.45,21.05c.35-1.89,1.27-3.67,2.64-5.04,1.81-1.81,4.22-2.81,6.78-2.81h.03c4.67,.03,8.58,3.41,9.43,7.85H30.55Z" fill="#4cd763"/></g></svg>