<svg id="Layer_1" data-name="Layer 1" xmlns="http://www.w3.org/2000/svg" viewBox="0 0 155 119"><title>woorank help icons</title><rect x="13.4" y="1.4" width="128.8" height="111.79" rx="13.4" ry="13.4" fill="#f89d0e"/><polygon points="137 110.4 13.8 110.4 13.8 12.1 15.4 7.6 137 7.6 137 110.4" fill="#d3860c"/><rect x="13.4" y="1.4" width="129" height="111.79" rx="13.4" ry="13.4" fill="none" stroke="#9b6105" stroke-miterlimit="10"/><path d="M1.2,105.7v7.8h0a3.8,3.8,0,0,0,3.4,3.8H150.4a3.8,3.8,0,0,0,3.4-3.8h0v-7.8Z" fill="#f89d0e"/><path d="M1.2,113v.7h0a3.8,3.8,0,0,0,3.4,3.8H150.4a3.8,3.8,0,0,0,3.4-3.8h0V113Z" fill="#d3860c"/><path d="M1.2,105.8v8h0c.1,2.1,1.6,3.8,3.4,3.8H150.4c1.8,0,3.3-1.7,3.4-3.8h0v-8Z" fill="none" stroke="#9b6105" stroke-miterlimit="10"/><rect x="20.9" y="9.8" width="113.9" height="90.78" fill="#fff"/><rect x="20.9" y="9.8" width="113.9" height="90.78" fill="none" stroke="#9b6105" stroke-miterlimit="10"/><rect x="95.8" y="108.9" width="52.8" height="1.43" fill="#9b6105"/><rect x="29.2" y="18.6" width="96.3" height="72.8" fill="none" stroke="#f89d0e" stroke-linecap="round" stroke-miterlimit="10"/><line x1="29.4" y1="33.9" x2="125.8" y2="33.9" fill="none" stroke="#f89d0e" stroke-linecap="round" stroke-miterlimit="10"/><line x1="45" y1="56.1" x2="110" y2="56.1" fill="none" stroke="#f89d0e" stroke-linecap="round" stroke-miterlimit="10"/><line x1="45" y1="68.5" x2="110" y2="68.5" fill="none" stroke="#f89d0e" stroke-linecap="round" stroke-miterlimit="10"/></svg>