<svg id="Layer_1" data-name="Layer 1" xmlns="http://www.w3.org/2000/svg" viewBox="0 0 155 119"><title>woorank help icons</title><circle cx="71.8" cy="59.8" r="26.8" fill="#fff"/><path d="M68.9,25.2C50.4,25.2,34.6,41,34.6,59.5S50.4,93.8,68.9,93.8c28.3,0,51.5-34.3,51.5-34.3S97.2,25.2,68.9,25.2ZM87.4,54,70.2,71.1l-3,3-3-3-8.6-8.6a4.3,4.3,0,1,1,6.1-6.1l5.6,5.6L81.3,47.9A4.3,4.3,0,0,1,87.4,54Z" fill="#428bca" fill-rule="evenodd"/><path d="M59,26.8C45.1,31.1,34.6,44.4,34.6,59.5S45.9,88.9,60.7,92.7C42.3,65.6,52.1,39.4,59,26.8Z" fill="#3876ac"/><path d="M68.9,25.2C50.4,25.2,34.6,41,34.6,59.5S50.4,93.8,68.9,93.8c28.3,0,51.5-34.3,51.5-34.3S97.2,25.2,68.9,25.2ZM87.4,54,70.2,71.1l-3,3-3-3-8.6-8.6a4.3,4.3,0,1,1,6.1-6.1l5.6,5.6L81.3,47.9A4.3,4.3,0,0,1,87.4,54Z" fill="none" stroke="#2b5c86" stroke-miterlimit="10" fill-rule="evenodd"/></svg>