<?xml version="1.0" encoding="UTF-8"?><svg id="Layer_1" xmlns="http://www.w3.org/2000/svg" viewBox="0 0 80 80"><polygon points="35.7 25.07 35.82 24.38 31.53 20.2 37.45 19.35 40.1 13.94 42.75 19.35 48.65 20.2 44.38 24.38 45.39 30.29 40.1 27.49 34.76 30.3 35.7 25.07" fill="#ffc14c"/><path d="M40.1,16.97l1.21,2.33,.61,1.21,1.39,.2,2.55,.36-1.84,1.81-1,.98,.23,1.39,.43,2.54-2.28-1.21-1.21-.65-1.21,.65-2.28,1.21,.43-2.54,.23-1.39-1-.98-1.84-1.81,2.55-.36,1.39-.2,.61-1.21,1.01-2.33m0-4.47c-.48-.01-.92,.26-1.12,.7l-2.41,4.93-5.39,.78c-.47,.06-.87,.39-1.01,.84-.15,.45-.04,.95,.29,1.29l3.9,3.8-.92,5.37c-.09,.46,.11,.93,.49,1.21,.37,.32,.9,.37,1.34,.14l4.82-2.53,4.82,2.53c.42,.23,.93,.19,1.31-.1,.39-.27,.58-.74,.49-1.21l-.92-5.37,3.93-3.84c.34-.34,.46-.83,.31-1.29-.14-.46-.54-.79-1.01-.84l-5.39-.78-2.41-4.93c-.2-.44-.66-.72-1.14-.7Z" fill="#2286e6"/><polygon points="21.99 31.84 17.73 34.07 18.55 29.34 15.11 25.99 19.87 25.29 21.99 20.95 24.12 25.29 28.88 25.99 25.43 29.34 26.24 34.07 21.99 31.84" fill="#ffdc99"/><path d="M22.02,23.97l.63,1.27,.58,1.27,1.4,.2,1.39,.2-1.01,.98-1,.98,.24,1.39,.24,1.39-1.21-.65-1.25-.63-1.21,.65-1.21,.65,.24-1.39,.23-1.39-1.11-.94-1-.98,1.39-.23,1.39-.2,.63-1.27,.65-1.3m0-4.7c-.4,0-.77,.23-.95,.59l-2.06,4.21-4.59,.67c-.58,.08-.99,.61-.91,1.19,.03,.24,.15,.46,.32,.63l3.33,3.24-.78,4.58c-.07,.4,.1,.8,.42,1.04,.18,.13,.4,.2,.63,.2,.17,0,.34-.04,.49-.12l4.11-2.17,4.12,2.17c.15,.08,.32,.12,.49,.12,.22,0,.44-.07,.63-.2,.33-.24,.49-.64,.42-1.04l-.84-4.58,3.33-3.24c.42-.42,.42-1.1,0-1.52-.16-.16-.37-.27-.59-.3l-4.6-.67-2.05-4.21c-.18-.36-.56-.59-.96-.59h.06Z" fill="#2286e6"/><polygon points="58.21 31.84 53.96 34.07 54.76 29.34 51.32 25.99 56.08 25.29 58.21 20.95 60.33 25.29 65.09 25.99 61.64 29.34 62.46 34.07 58.21 31.84" fill="#ffdc99"/><path d="M58.17,23.97l.61,1.27,.63,1.27,1.39,.2,1.39,.2-1,.98-1,.98,.23,1.39,.24,1.39-1.21-.65-1.28-.63-1.21,.65-1.21,.65,.24-1.39,.24-1.39-1.05-.94-1.01-.98,1.39-.23,1.4-.24,.61-1.27,.59-1.27m0-4.7c-.41,0-.78,.23-.96,.59l-2.05,4.21-4.6,.67c-.59,.09-.99,.64-.89,1.23,.04,.23,.14,.43,.3,.59l3.39,3.24-.78,4.58c-.06,.4,.1,.8,.42,1.04,.18,.13,.4,.2,.63,.2,.18,0,.35-.04,.51-.12l4.05-2.17,4.11,2.17c.15,.08,.32,.12,.49,.12,.23,0,.44-.07,.63-.2,.33-.24,.49-.64,.42-1.04l-.78-4.58,3.33-3.24c.42-.4,.44-1.07,.04-1.5-.17-.18-.39-.29-.63-.32l-4.59-.67-2.06-4.21c-.18-.36-.55-.59-.95-.59Z" fill="#2286e6"/><path d="M63.43,51.1c1.54-1.35,2.42-3.3,2.41-5.35,0-3.93-3.18-7.11-7.11-7.11s-7.11,3.18-7.11,7.11h0c-.02,2.06,.86,4.01,2.41,5.36-1.42,.61-2.71,1.49-3.78,2.6-1.41-1.27-3.05-2.26-4.82-2.93,4.01-2.99,4.83-8.67,1.84-12.68-2.99-4.01-8.67-4.83-12.68-1.84s-4.83,8.67-1.84,12.68c.52,.7,1.14,1.32,1.84,1.84-1.77,.67-3.41,1.66-4.82,2.93-1.08-1.11-2.36-2-3.78-2.6,1.55-1.35,2.43-3.3,2.41-5.35,0-3.93-3.18-7.11-7.11-7.11s-7.11,3.18-7.11,7.11h0c-.01,2.05,.87,4,2.41,5.35-4.16,1.79-6.92,5.81-7.1,10.34-.09,1.38,.96,2.57,2.34,2.67,.12,0,.24,0,.36,0h12.7v.4c-.04,.77,.24,1.53,.76,2.1,.55,.58,1.32,.9,2.12,.9h24.66c.81,0,1.58-.32,2.15-.89,.56-.58,.85-1.36,.82-2.16v-.4h12.64c1.38,0,2.51-1.12,2.51-2.5,0-.04,0-.07,0-.11-.17-4.53-2.94-8.55-7.1-10.34Zm-4.66-9.45c2.26,0,4.1,1.82,4.11,4.09,0,2.26-1.82,4.1-4.09,4.11-2.26,0-4.1-1.82-4.11-4.09,0,0,0,0,0-.01,0-2.26,1.83-4.08,4.09-4.1Zm-24.52,1.88c0-3.23,2.61-5.86,5.84-5.87s5.86,2.61,5.87,5.84-2.61,5.86-5.84,5.87c0,0,0,0-.01,0-3.23,0-5.84-2.62-5.86-5.84Zm-12.81-1.88c2.26,0,4.1,1.83,4.1,4.1s-1.83,4.1-4.1,4.1-4.1-1.83-4.1-4.1h0c0-2.26,1.83-4.1,4.1-4.1Zm-8.71,19.39c.48-4.81,4.76-8.32,9.57-7.84,2.12,.21,4.09,1.19,5.54,2.75-1.14,1.53-1.97,3.26-2.47,5.1H12.72Zm15.33,3.25c0-6.66,5.4-12.05,12.05-12.05s12.05,5.4,12.05,12.05H28.05Zm26.78-3.25c-.48-1.83-1.3-3.56-2.41-5.1,3.29-3.54,8.83-3.74,12.36-.45,1.56,1.45,2.54,3.42,2.75,5.54h-12.7Z" fill="#2286e6"/></svg>