<svg id="Layer_1" data-name="Layer 1" xmlns="http://www.w3.org/2000/svg" viewBox="0 0 155 119"><title>woorank help icons</title><rect x="20.3" y="7.6" width="115" height="99.81" rx="12" ry="12" fill="#f89d0e"/><polygon points="130.7 104.9 20.7 104.9 20.7 17.1 22 13.1 130.7 13.1 130.7 104.9" fill="#d3860c"/><rect x="20.3" y="7.6" width="115.2" height="99.81" rx="12" ry="12" fill="none" stroke="#9b6105" stroke-miterlimit="10"/><path d="M9.3,100.7v7h0a3.3,3.3,0,0,0,3,3.4H142.6a3.3,3.3,0,0,0,3-3.4h0v-7Z" fill="#f89d0e"/><path d="M9.3,107.3v.6h0a3.3,3.3,0,0,0,3,3.4H142.6a3.3,3.3,0,0,0,3-3.4h0v-.6Z" fill="#d3860c"/><path d="M9.3,100.9V108h0a3.4,3.4,0,0,0,3,3.4H142.6a3.4,3.4,0,0,0,3-3.4h0v-7.1Z" fill="none" stroke="#9b6105" stroke-miterlimit="10"/><rect x="26.9" y="15.2" width="101.7" height="81.05" fill="#fff"/><rect x="26.9" y="15.2" width="101.7" height="81.05" fill="none" stroke="#9b6105" stroke-miterlimit="10"/><rect x="93.8" y="103.6" width="47.1" height="1.27" fill="#9b6105"/><rect x="34.4" y="23" width="86" height="65" fill="none" stroke="#f89d0e" stroke-linecap="round" stroke-miterlimit="10"/><line x1="34.6" y1="36.6" x2="120.6" y2="36.6" fill="none" stroke="#f89d0e" stroke-linecap="round" stroke-miterlimit="10"/><line x1="48.5" y1="56.5" x2="106.5" y2="56.5" fill="none" stroke="#f89d0e" stroke-linecap="round" stroke-miterlimit="10"/><line x1="48.5" y1="67.5" x2="106.5" y2="67.5" fill="none" stroke="#f89d0e" stroke-linecap="round" stroke-miterlimit="10"/></svg>