<?xml version="1.0" encoding="UTF-8"?><svg id="Layer_1" xmlns="http://www.w3.org/2000/svg" viewBox="0 0 80 80"><path d="M66.06,34.87l-6.43-1.07c-.36-1.14-.82-2.24-1.37-3.29l3.79-5.3c.49-.68,.41-1.62-.18-2.21l-4.86-4.86c-.59-.59-1.53-.67-2.21-.18l-5.3,3.79c-1.05-.55-2.15-1-3.29-1.37l-1.07-6.43c-.14-.83-.86-1.44-1.7-1.44h-6.87c-.84,0-1.56,.61-1.7,1.44l-1.07,6.43c-1.14,.36-2.24,.82-3.29,1.37l-5.3-3.79c-.68-.49-1.62-.41-2.21,.18l-4.86,4.86c-.59,.59-.67,1.53-.18,2.21l3.79,5.3c-.55,1.05-1,2.15-1.37,3.29l-6.43,1.07c-.83,.14-1.44,.86-1.44,1.7v6.88c0,.84,.61,1.56,1.44,1.7l6.43,1.07c.36,1.14,.82,2.24,1.37,3.29l-3.79,5.3c-.49,.68-.41,1.62,.18,2.21l4.86,4.86c.59,.59,1.53,.67,2.21,.18l5.3-3.79c1.05,.55,2.15,1,3.29,1.37l1.07,6.43c.14,.83,.86,1.44,1.7,1.44h6.87c.84,0,1.56-.61,1.7-1.44l1.07-6.43c1.14-.36,2.24-.82,3.29-1.37l5.3,3.79c.68,.49,1.62,.41,2.21-.18l4.86-4.86c.59-.59,.67-1.53,.18-2.21l-3.79-5.3c.55-1.05,1-2.15,1.37-3.29l6.43-1.07c.83-.14,1.44-.85,1.44-1.7v-6.88c0-.84-.61-1.56-1.44-1.7Zm-8.05,8.12c-.67,.11-1.21,.61-1.38,1.27-.41,1.6-1.04,3.1-1.86,4.48-.35,.58-.32,1.32,.08,1.88l3.57,5-2.8,2.8-5-3.57c-.55-.39-1.29-.43-1.88-.08-1.38,.82-2.89,1.45-4.48,1.86-.66,.17-1.16,.71-1.27,1.38l-1.01,6.05h-3.96l-1.01-6.05c-.11-.67-.61-1.21-1.27-1.38-1.6-.41-3.1-1.04-4.48-1.86-.58-.35-1.32-.32-1.88,.08l-5,3.57-2.8-2.8,3.57-5c.39-.55,.43-1.29,.08-1.88-.82-1.38-1.45-2.89-1.86-4.48-.17-.66-.71-1.16-1.38-1.27l-6.05-1.01v-3.96l6.05-1.01c.67-.11,1.21-.61,1.38-1.27,.41-1.6,1.04-3.1,1.86-4.48,.35-.59,.32-1.32-.08-1.88l-3.57-5,2.8-2.8,5,3.57c.55,.39,1.29,.43,1.88,.08,1.38-.82,2.89-1.45,4.48-1.86,.66-.17,1.16-.71,1.27-1.38l1.01-6.05h3.96l1.01,6.05c.11,.67,.61,1.21,1.27,1.38,1.6,.41,3.1,1.04,4.48,1.86,.58,.35,1.32,.32,1.88-.08l5-3.57,2.8,2.8-3.57,5c-.39,.55-.43,1.29-.08,1.88,.82,1.38,1.45,2.89,1.86,4.48,.17,.66,.71,1.16,1.38,1.27l6.05,1.01v3.96s-6.05,1.01-6.05,1.01Z" fill="#2286e6"/><g><circle cx="40" cy="40" r="8.5" fill="#e5f9e8"/><path d="M40,29.69c-5.69,0-10.31,4.62-10.31,10.31,0,5.69,4.62,10.31,10.31,10.31,5.69,0,10.31-4.62,10.31-10.31,0-5.69-4.62-10.31-10.31-10.31Zm0,17.19c-3.79,0-6.87-3.09-6.88-6.88,0-3.79,3.09-6.87,6.88-6.88,3.79,0,6.87,3.09,6.88,6.88,0,3.79-3.09,6.87-6.88,6.88Z" fill="#4cd763"/></g></svg>